<?xml version="1.0" encoding="utf-8"?>
<!-- Generator: Adobe Illustrator 24.1.0, SVG Export Plug-In . SVG Version: 6.00 Build 0)  -->
<svg version="1.1" xmlns="http://www.w3.org/2000/svg" xmlns:xlink="http://www.w3.org/1999/xlink" x="0px" y="0px"
	 viewBox="0 0 1502.9 929.6" style="enable-background:new 0 0 1502.9 929.6;" xml:space="preserve">
<style type="text/css">
	.st0{opacity:0.48;fill:url(#SVGID_1_);}
	.st1{opacity:0.81;fill:#E1E2FE;}
	.st2{opacity:0.41;}
	.st3{fill:#E1E2FE;}
	.st4{fill:#6077F1;}
	.st5{fill:#ECFBFF;}
	.st6{filter:url(#Adobe_OpacityMaskFilter);}
	.st7{filter:url(#Adobe_OpacityMaskFilter_1_);}
	.st8{mask:url(#SVGID_2_);fill:url(#SVGID_3_);}
	.st9{fill:url(#SVGID_4_);}
	.st10{filter:url(#Adobe_OpacityMaskFilter_2_);}
	.st11{filter:url(#Adobe_OpacityMaskFilter_3_);}
	.st12{mask:url(#SVGID_5_);fill:url(#SVGID_6_);}
	.st13{fill:url(#SVGID_7_);}
	.st14{filter:url(#Adobe_OpacityMaskFilter_4_);}
	.st15{filter:url(#Adobe_OpacityMaskFilter_5_);}
	.st16{mask:url(#SVGID_8_);fill:url(#SVGID_9_);}
	.st17{fill:url(#SVGID_10_);}
	.st18{filter:url(#Adobe_OpacityMaskFilter_6_);}
	.st19{filter:url(#Adobe_OpacityMaskFilter_7_);}
	.st20{mask:url(#SVGID_11_);fill:url(#SVGID_12_);}
	.st21{fill:url(#SVGID_13_);}
	.st22{filter:url(#Adobe_OpacityMaskFilter_8_);}
	.st23{filter:url(#Adobe_OpacityMaskFilter_9_);}
	.st24{mask:url(#SVGID_14_);fill:url(#SVGID_15_);}
	.st25{fill:url(#SVGID_16_);}
	.st26{fill:#FAF0BD;}
	.st27{opacity:0.3;}
	.st28{opacity:0.31;fill:#E1E2FE;}
	.st29{opacity:0.47;fill:#ECF1F7;}
	.st30{opacity:0.47;fill:#E1E2FE;}
	.st31{fill:url(#SVGID_17_);}
	.st32{fill:#5148FF;}
	.st33{fill:url(#SVGID_18_);}
	.st34{fill:url(#SVGID_19_);}
	.st35{fill:url(#SVGID_20_);}
	.st36{fill:url(#SVGID_21_);}
	.st37{fill:url(#SVGID_22_);}
	.st38{fill:url(#SVGID_23_);}
	.st39{fill:url(#SVGID_24_);}
	.st40{fill:url(#SVGID_25_);}
	.st41{fill:#F9FBFC;}
	.st42{fill:#00FFD4;}
	.st43{fill:#112B46;}
	.st44{fill:#0C273F;}
	.st45{fill:#E1E4F9;}
	.st46{fill:url(#SVGID_26_);}
	.st47{fill:url(#SVGID_27_);}
	.st48{fill:url(#SVGID_28_);}
	.st49{fill:url(#SVGID_29_);}
	.st50{opacity:0.28;}
	.st51{fill:none;stroke:#000000;stroke-width:0.3994;stroke-miterlimit:10;}
	.st52{fill:none;}
	.st53{fill:#EA9B56;}
	.st54{fill:url(#SVGID_30_);}
	.st55{fill:#FFC8AF;}
	.st56{fill:url(#SVGID_31_);}
	.st57{opacity:0.43;clip-path:url(#XMLID_3_);fill:url(#SVGID_32_);}
	.st58{clip-path:url(#XMLID_6_);fill:url(#SVGID_33_);}
	.st59{clip-path:url(#XMLID_17_);fill:url(#SVGID_34_);}
	.st60{clip-path:url(#XMLID_17_);fill:url(#SVGID_35_);}
	.st61{opacity:0.58;clip-path:url(#XMLID_19_);fill:url(#SVGID_36_);}
	.st62{opacity:0.26;clip-path:url(#XMLID_21_);fill:url(#SVGID_37_);}
	.st63{opacity:0.43;clip-path:url(#XMLID_21_);fill:url(#SVGID_38_);}
	.st64{opacity:0.3;clip-path:url(#XMLID_21_);fill:url(#SVGID_39_);}
	.st65{clip-path:url(#XMLID_21_);fill:url(#SVGID_40_);}
	.st66{opacity:0.29;clip-path:url(#XMLID_23_);fill:url(#SVGID_41_);}
	.st67{clip-path:url(#XMLID_23_);fill:url(#SVGID_42_);}
	.st68{fill:url(#SVGID_43_);}
	.st69{fill:url(#SVGID_44_);}
	.st70{fill:url(#SVGID_45_);}
	.st71{fill:url(#SVGID_46_);}
	.st72{fill:#3D348B;}
	.st73{fill:url(#SVGID_47_);}
	.st74{fill:url(#SVGID_48_);}
	.st75{fill:url(#SVGID_49_);}
	.st76{fill:url(#SVGID_50_);}
	.st77{fill:url(#SVGID_51_);}
	.st78{fill:url(#SVGID_52_);}
	.st79{fill:#F29127;}
	.st80{fill:#FDAEB3;}
	.st81{fill:#E58099;}
	.st82{opacity:0.47;fill:url(#SVGID_53_);}
	.st83{fill:#0C1498;}
	.st84{fill:#785F7C;}
	.st85{fill:url(#SVGID_54_);}
	.st86{fill:#878CF0;}
	.st87{fill:#7678ED;}
	.st88{fill:#D5DCFF;}
	.st89{fill:#B8C7FF;}
	.st90{fill:#9AAFFC;}
	.st91{fill:#7CAEF7;}
	.st92{fill:url(#SVGID_55_);}
	.st93{fill:url(#SVGID_56_);}
	.st94{fill:url(#SVGID_57_);}
	.st95{fill:url(#SVGID_58_);}
	.st96{fill:url(#SVGID_59_);}
	.st97{fill:url(#SVGID_60_);}
	.st98{fill:url(#SVGID_61_);}
	.st99{fill:url(#SVGID_62_);}
	.st100{fill:url(#SVGID_63_);}
	.st101{fill:url(#SVGID_64_);}
	.st102{fill:#FFFFFF;}
	.st103{fill:url(#SVGID_65_);}
</style>
<g id="background">
</g>
<g id="Layer_3">
	<linearGradient id="SVGID_1_" gradientUnits="userSpaceOnUse" x1="554.8594" y1="414.8056" x2="1503.6216" y2="414.8056">
		<stop  offset="0" style="stop-color:#435DF1"/>
		<stop  offset="0.327" style="stop-color:#4333F1"/>
		<stop  offset="1" style="stop-color:#4C008C"/>
	</linearGradient>
	<path class="st0" d="M1503.6-1.4V807c-3.4-0.2-6.8-0.5-10.1-0.7c-71-4.7-142.9-4.5-213.8,0.4c-20.9,1.5-41.8,3.9-62.6,6.8
		c-10.7,1.5-21.4,3-32.1,4.3c-5.8,0.7-11.6,1.6-17.4,2.2h0c-4.2,0.4-8.5,0.7-12.8,0.7c-7.6,0-15.1-0.2-22.7,0.5
		c-2.7,0.2-5.3,0.5-8,0.7c-20.3,1.9-40.6,3.4-61,4.8c-7.4,0.5-14.4,0.9-21.7,2.2c-5.1,0.9-10.4,1.5-15.6,1.7c0,0,0,0,0,0
		c-1.1,0-2.1,0.1-3.2,0.1c-37.4,0.8-74.9-1.2-112-6.8c-25.5-3.9-50.9-9.3-75.7-16.7c-0.1,0-0.2,0-0.3-0.1
		c-6.9-2.1-13.7-4.3-20.5-6.7c-4.1-1.4-8.2-2.9-12.3-4.5c-1.6-0.6-3.2-1.3-4.7-1.9c-7.5-3-14.8-6.2-21.9-9.9
		c-1.6-0.8-3.1-1.6-4.4-2.3c-2.3-1.3-4.6-2.6-6.8-4c-34.3-22.2-67-48.4-91.6-81.6c-5-6.8-9.9-14.1-14.5-21.8
		c-0.4-0.7-0.9-1.5-1.3-2.2c-11.6-20-20.6-42.5-23.3-65.2c0,0,0,0,0-0.1c-1.1-9.2-1.2-18.4,0-27.4c2.8-20.5,7.6-41,14.7-60.4
		c7.1-19.4,15.9-38.3,20.4-58.5c10.8-48.6,0.1-99.1-20.4-143.7c-1.3-2.8-2.7-5.6-4.1-8.4c0,0,0,0,0-0.1c-15.2-29-37.7-55-56.3-82.7
		c-17.4-25.8-31.4-53.1-32.8-85.6c-0.1-2.2-0.1-4.4-0.1-6.6c0-0.7,0-1.3,0-2c0-0.8,0.1-1.6,0.1-2.4c1.9-36.7,20.4-70.6,44.9-97.5
		C610.8,20.1,623,8.3,636.1-1.4H1503.6z"/>
	<g>
		<path class="st1" d="M763.9,777.9c-102-64-129.7-136.8-132.8-192c-11.3,51.4-11.2,116.7,29.5,180.6
			c86.7,136,276.1,101.4,358.7,66.7c4.1-1.7,8.4-3.2,13-4.6C853.8,836.3,763.9,777.9,763.9,777.9z"/>
		<path class="st1" d="M668.3,411.5c-8.3-39.6-29.1-88.7-78.4-131.7c-45.2-39.4-93.6-91.4-91.4-155.7c2-59.8,37.2-107.8,95.3-123.7
			c1.7-0.5,3.8-1.1,6.2-1.7H638c-3.3,2.6-6.5,5.3-9.5,7.7c-11.7,9.5-22.6,19.8-32.4,31.2c-22.4,25.9-39.1,57.6-41.1,92
			c0,0.8-0.1,1.6-0.1,2.4c-0.1,2.6-0.1,5.2,0,7.9c0.9,31.7,14.3,61,32.8,86.2c3.3,4.5,6.7,8.8,10.3,13.1
			c20.4,24.1,35.3,47.5,46,69.6c0,0,0,0,0,0.1C662.7,347.4,668.6,382.4,668.3,411.5z"/>
		<path class="st1" d="M1503.6,805.9v95.2c-24.2-9.9-53.5-20.6-88.3-31.9c-71.1-23.2-165.1-43.3-247.7-49.2h0
			c-4.8-0.4-9.6-0.7-14.3-0.9c77.1-8.4,84.9-15.2,202.5-17.1C1420.1,800.9,1468.7,803.1,1503.6,805.9z"/>
	</g>
	<g class="st2">
		<g>
			<path class="st3" d="M1479.1,530.3c0.7-12.8,0.4-25.6-1-38.4c-6.8-59.8-37.4-116.1-82.6-155.9c-16.1-14.2-34.4-26.9-44.9-45.6
				c-17.6-31.5-16.3-67.8-38.2-98.9c-21.9-31.2-53.9-55.5-89.9-68c-107.4-37.2-257.8,23.4-244.3,152.8c0,0.5,0.1,1.1,0.2,2
				c1.8,26.9-19.3,49.5-46.2,50.1c-99.1,2.4-184.4,78.8-202.7,175.6c-11.7,62.3,7.5,130.5,53,174.5c34,32.9,79.6,50.9,125.2,63.3
				c91.5,24.9,187.8,30.1,282.1,20.6c88.3-8.9,181.5-34.3,238.6-102.2C1458.9,624,1476.4,577.6,1479.1,530.3z"/>
		</g>
	</g>
	<g>
		<path class="st4" d="M104.2,869.7c-2,0.2-4.2,0.5-6.5,0.7c0,0-0.1,0-0.1,0c-1.3,0.1-2.7,0.2-4.1,0.3h0c-1.6,0.1-3.4,0.2-5.1,0.4
			c-1.3,0.1-2.5,0.1-3.7,0.2c-0.1,0-0.2,0-0.3,0c-3.8,0.1-7,0-9.9-0.2c-0.5,0-1-0.1-1.5-0.1c-0.9-0.1-1.7-0.2-2.5-0.3
			c-6.3-1-9.6-2.9-10.2-4.6c0.6,3.2,4,20.4,5.7,31.4c1.9,12.2,5.4,26.6,6.4,28.6c1,2,8.5,3.7,19.3,3.5c10.7-0.2,17.9-0.8,19.3-3.3
			c1.3-2.5,5.2-10,7-27c1.8-16.9,3.1-36.2,3.1-36.2l0,0C121.1,866.6,114.6,868.5,104.2,869.7z"/>
		<path class="st5" d="M113.2,858.7c-3.3-0.6-7.3-1-11.3-1.1c-0.7,0-1.5-0.1-2.2-0.1c-2-0.1-4.1-0.1-6-0.1c-0.6,0-1.1,0-1.7,0h-0.7
			c-2.9,0-6,0.1-9.3,0.4c-0.9,0-1.7,0.1-2.5,0.2c-3.3,0.3-6.5,0.7-9.4,1.3c-1.5,0.3-3,0.7-4.2,1.2c-0.3,0.1-0.7,0.2-1,0.4
			c-2.8,1.1-4.6,2.7-4.6,4.7c0,0,0,0,0,0c0,0,0,0,0,0c0,0.1,0,0.2,0.1,0.5c0.6,1.7,3.9,3.6,10.2,4.6c0.8,0.1,1.6,0.2,2.5,0.3
			c0.5,0.1,1,0.1,1.5,0.1c2.8,0.2,6.1,0.3,9.9,0.2c0.1,0,0.2,0,0.3,0c1.2,0,2.4-0.1,3.7-0.2c1.7-0.1,3.5-0.2,5.1-0.4h0
			c1.4-0.1,2.8-0.2,4.1-0.3c0,0,0.1,0,0.1,0c2.3-0.2,4.4-0.4,6.5-0.7c10.4-1.2,16.9-3.1,17-6.6l0,0
			C121.2,860.9,117.9,859.5,113.2,858.7z"/>
		<defs>
			<filter id="Adobe_OpacityMaskFilter" filterUnits="userSpaceOnUse" x="90.4" y="693.5" width="35.9" height="177.2">
				<feFlood  style="flood-color:white;flood-opacity:1" result="back"/>
				<feBlend  in="SourceGraphic" in2="back" mode="normal"/>
			</filter>
		</defs>
		<mask maskUnits="userSpaceOnUse" x="90.4" y="693.5" width="35.9" height="177.2" id="SVGID_2_">
			<g class="st6">
				<defs>
					<filter id="Adobe_OpacityMaskFilter_1_" filterUnits="userSpaceOnUse" x="90.4" y="693.5" width="35.9" height="177.2">
						<feFlood  style="flood-color:white;flood-opacity:1" result="back"/>
						<feBlend  in="SourceGraphic" in2="back" mode="normal"/>
					</filter>
				</defs>
				<mask maskUnits="userSpaceOnUse" x="90.4" y="693.5" width="35.9" height="177.2" id="SVGID_2_">
					<g class="st7">
					</g>
				</mask>
				
					<linearGradient id="SVGID_3_" gradientUnits="userSpaceOnUse" x1="873.3165" y1="778.2722" x2="942.1768" y2="784.7859" gradientTransform="matrix(1 0 0 1 -803.8926 0)">
					<stop  offset="0" style="stop-color:#999999"/>
					<stop  offset="1" style="stop-color:#FFFFFF"/>
				</linearGradient>
				<path class="st8" d="M126.3,693.5c0,0-0.1,0.8-0.3,2.3c-1.1,7.6-4.5,32.8-5.4,58.1c-1,30.2-5.4,53.9-10.4,74.3
					c-2.5,10.1-5.7,21-8.3,29.5c-1.8,5.8-3.3,10.4-4.1,12.8c0,0-0.1,0-0.1,0c-0.2,0-0.5,0-0.7,0.1c-0.2,0-0.4,0-0.6,0
					c-0.9,0.1-1.8,0.2-2.7,0.2h0c-0.3-2.1-1-6.6-1.6-13.3c-0.9-10-1.8-24.8-1.5-43.9c0.7-37.6,5.7-62.7,17.7-86.1
					c10.4-20.1,16.3-30.7,17.7-33.3C126.2,693.7,126.3,693.5,126.3,693.5z"/>
			</g>
		</mask>
		
			<linearGradient id="SVGID_4_" gradientUnits="userSpaceOnUse" x1="873.3165" y1="778.2722" x2="942.1768" y2="784.7859" gradientTransform="matrix(1 0 0 1 -803.8926 0)">
			<stop  offset="0" style="stop-color:#FFB57D"/>
			<stop  offset="1" style="stop-color:#FF91A9"/>
		</linearGradient>
		<path class="st9" d="M126.3,693.5c0,0-0.1,0.8-0.3,2.3c-1.1,7.6-4.5,32.8-5.4,58.1c-1,30.2-5.4,53.9-10.4,74.3
			c-2.5,10.1-5.7,21-8.3,29.5c-1.8,5.8-3.3,10.4-4.1,12.8c0,0-0.1,0-0.1,0c-0.2,0-0.5,0-0.7,0.1c-0.2,0-0.4,0-0.6,0
			c-0.9,0.1-1.8,0.2-2.7,0.2h0c-0.3-2.1-1-6.6-1.6-13.3c-0.9-10-1.8-24.8-1.5-43.9c0.7-37.6,5.7-62.7,17.7-86.1
			c10.4-20.1,16.3-30.7,17.7-33.3C126.2,693.7,126.3,693.5,126.3,693.5z"/>
		<defs>
			<filter id="Adobe_OpacityMaskFilter_2_" filterUnits="userSpaceOnUse" x="97.6" y="776.7" width="45" height="93.7">
				<feFlood  style="flood-color:white;flood-opacity:1" result="back"/>
				<feBlend  in="SourceGraphic" in2="back" mode="normal"/>
			</filter>
		</defs>
		<mask maskUnits="userSpaceOnUse" x="97.6" y="776.7" width="45" height="93.7" id="SVGID_5_">
			<g class="st10">
				<defs>
					<filter id="Adobe_OpacityMaskFilter_3_" filterUnits="userSpaceOnUse" x="97.6" y="776.7" width="45" height="93.7">
						<feFlood  style="flood-color:white;flood-opacity:1" result="back"/>
						<feBlend  in="SourceGraphic" in2="back" mode="normal"/>
					</filter>
				</defs>
				<mask maskUnits="userSpaceOnUse" x="97.6" y="776.7" width="45" height="93.7" id="SVGID_5_">
					<g class="st11">
					</g>
				</mask>
				
					<linearGradient id="SVGID_6_" gradientUnits="userSpaceOnUse" x1="975.2085" y1="804.2423" x2="841.2114" y2="857.2828" gradientTransform="matrix(1 0 0 1 -803.8926 0)">
					<stop  offset="0" style="stop-color:#999999"/>
					<stop  offset="1" style="stop-color:#FFFFFF"/>
				</linearGradient>
				<path class="st12" d="M142.6,776.7c0,0,0,0.3-0.1,0.9c-0.3,3.9-1.6,19.9-6,33.5c-5,15.7-12.8,29.5-20.9,43.4
					c-0.9,1.5-1.7,2.9-2.6,4.1c-3.6,5.6-6.8,9-9,11c-1.2,0.1-2.5,0.3-3.8,0.4c-0.2,0-0.4,0-0.6,0.1c-0.7,0.1-1.4,0.1-2.1,0.2
					c0,0-0.1,0-0.1,0c0.3-2.4,1-7.2,2-12.9c1.1-6.2,2.6-13.4,4.6-19.9c4.5-15.2,9.8-26.7,17.7-40.6c7.3-12.9,18.9-19.3,20.5-20.2
					C142.5,776.7,142.6,776.7,142.6,776.7z"/>
			</g>
		</mask>
		
			<linearGradient id="SVGID_7_" gradientUnits="userSpaceOnUse" x1="975.2085" y1="804.2423" x2="841.2114" y2="857.2828" gradientTransform="matrix(1 0 0 1 -803.8926 0)">
			<stop  offset="0" style="stop-color:#FFB57D"/>
			<stop  offset="1" style="stop-color:#FF91A9"/>
		</linearGradient>
		<path class="st13" d="M142.6,776.7c0,0,0,0.3-0.1,0.9c-0.3,3.9-1.6,19.9-6,33.5c-5,15.7-12.8,29.5-20.9,43.4
			c-0.9,1.5-1.7,2.9-2.6,4.1c-3.6,5.6-6.8,9-9,11c-1.2,0.1-2.5,0.3-3.8,0.4c-0.2,0-0.4,0-0.6,0.1c-0.7,0.1-1.4,0.1-2.1,0.2
			c0,0-0.1,0-0.1,0c0.3-2.4,1-7.2,2-12.9c1.1-6.2,2.6-13.4,4.6-19.9c4.5-15.2,9.8-26.7,17.7-40.6c7.3-12.9,18.9-19.3,20.5-20.2
			C142.5,776.7,142.6,776.7,142.6,776.7z"/>
		<defs>
			<filter id="Adobe_OpacityMaskFilter_4_" filterUnits="userSpaceOnUse" x="47.2" y="763.4" width="37.5" height="107.9">
				<feFlood  style="flood-color:white;flood-opacity:1" result="back"/>
				<feBlend  in="SourceGraphic" in2="back" mode="normal"/>
			</filter>
		</defs>
		<mask maskUnits="userSpaceOnUse" x="47.2" y="763.4" width="37.5" height="107.9" id="SVGID_8_">
			<g class="st14">
				<defs>
					<filter id="Adobe_OpacityMaskFilter_5_" filterUnits="userSpaceOnUse" x="47.2" y="763.4" width="37.5" height="107.9">
						<feFlood  style="flood-color:white;flood-opacity:1" result="back"/>
						<feBlend  in="SourceGraphic" in2="back" mode="normal"/>
					</filter>
				</defs>
				<mask maskUnits="userSpaceOnUse" x="47.2" y="763.4" width="37.5" height="107.9" id="SVGID_8_">
					<g class="st15">
					</g>
				</mask>
				
					<linearGradient id="SVGID_9_" gradientUnits="userSpaceOnUse" x1="876.4047" y1="761.4348" x2="867.0994" y2="841.4611" gradientTransform="matrix(1 0 0 1 -803.8926 0)">
					<stop  offset="0" style="stop-color:#999999"/>
					<stop  offset="1" style="stop-color:#FFFFFF"/>
				</linearGradient>
				<path class="st16" d="M84.7,871.3c-0.1,0-0.2,0-0.3,0c-1.7,0-3.3,0.1-4.8,0c-0.2,0-0.5,0-0.7,0c-1.6,0-3-0.1-4.4-0.2
					c-0.5,0-1-0.1-1.5-0.1c-1.6-2-4.3-5.5-7.2-10.5c-2.9-4.9-6.2-11.3-9-19c-1.5-4-2.9-8.5-4-13.3c-6.9-28.5-5.6-63.5-5.5-64.7v0
					c0,0,0.3,0.4,0.8,1.3c3,4.7,13.8,22.5,21,43.7c1,2.9,2,6.1,3,9.3c4,13.5,7.5,29,9.9,40.1C83.3,864,84.3,868.9,84.7,871.3z"/>
			</g>
		</mask>
		
			<linearGradient id="SVGID_10_" gradientUnits="userSpaceOnUse" x1="876.4047" y1="761.4348" x2="867.0994" y2="841.4611" gradientTransform="matrix(1 0 0 1 -803.8926 0)">
			<stop  offset="0" style="stop-color:#FFB57D"/>
			<stop  offset="1" style="stop-color:#FFA39E"/>
		</linearGradient>
		<path class="st17" d="M84.7,871.3c-0.1,0-0.2,0-0.3,0c-1.7,0-3.3,0.1-4.8,0c-0.2,0-0.5,0-0.7,0c-1.6,0-3-0.1-4.4-0.2
			c-0.5,0-1-0.1-1.5-0.1c-1.6-2-4.3-5.5-7.2-10.5c-2.9-4.9-6.2-11.3-9-19c-1.5-4-2.9-8.5-4-13.3c-6.9-28.5-5.6-63.5-5.5-64.7v0
			c0,0,0.3,0.4,0.8,1.3c3,4.7,13.8,22.5,21,43.7c1,2.9,2,6.1,3,9.3c4,13.5,7.5,29,9.9,40.1C83.3,864,84.3,868.9,84.7,871.3z"/>
		<defs>
			<filter id="Adobe_OpacityMaskFilter_6_" filterUnits="userSpaceOnUse" x="57.4" y="708.6" width="36.2" height="162.6">
				<feFlood  style="flood-color:white;flood-opacity:1" result="back"/>
				<feBlend  in="SourceGraphic" in2="back" mode="normal"/>
			</filter>
		</defs>
		<mask maskUnits="userSpaceOnUse" x="57.4" y="708.6" width="36.2" height="162.6" id="SVGID_11_">
			<g class="st18">
				<defs>
					<filter id="Adobe_OpacityMaskFilter_7_" filterUnits="userSpaceOnUse" x="57.4" y="708.6" width="36.2" height="162.6">
						<feFlood  style="flood-color:white;flood-opacity:1" result="back"/>
						<feBlend  in="SourceGraphic" in2="back" mode="normal"/>
					</filter>
				</defs>
				<mask maskUnits="userSpaceOnUse" x="57.4" y="708.6" width="36.2" height="162.6" id="SVGID_11_">
					<g class="st19">
					</g>
				</mask>
				
					<linearGradient id="SVGID_12_" gradientUnits="userSpaceOnUse" x1="871.5545" y1="723.7982" x2="896.6786" y2="883.8481" gradientTransform="matrix(1 0 0 1 -803.8926 0)">
					<stop  offset="0" style="stop-color:#999999"/>
					<stop  offset="1" style="stop-color:#FFFFFF"/>
				</linearGradient>
				<path class="st20" d="M93.6,857.4c0,5.8,0,10.6-0.1,13.3h0c-1.6,0.1-3.4,0.2-5.1,0.4c-0.1,0-0.2,0-0.3,0c-0.2,0-0.4,0-0.6,0
					c-1,0-1.9,0.1-2.9,0.1c-0.1,0-0.2,0-0.3,0c-0.9-2.1-2.8-6.8-5-13.3c-1.5-4.6-3.2-10.1-4.7-16.2c-4.5-18.1-0.5-31.1-5.8-55.5
					c-5.2-24.1-15.3-49.8-10-76.6c0.1-0.3,0.1-0.7,0.2-1c0,0,0,0,0.1,0.1c1.4,1.6,23.6,26.9,25.8,51.1c2.3,25,8.3,48.1,8.5,65.3
					C93.7,834.3,93.7,847.2,93.6,857.4z"/>
			</g>
		</mask>
		
			<linearGradient id="SVGID_13_" gradientUnits="userSpaceOnUse" x1="871.5545" y1="723.7982" x2="896.6786" y2="883.8481" gradientTransform="matrix(1 0 0 1 -803.8926 0)">
			<stop  offset="0" style="stop-color:#FFB57D"/>
			<stop  offset="1" style="stop-color:#FF91A9"/>
		</linearGradient>
		<path class="st21" d="M93.6,857.4c0,5.8,0,10.6-0.1,13.3h0c-1.6,0.1-3.4,0.2-5.1,0.4c-0.1,0-0.2,0-0.3,0c-0.2,0-0.4,0-0.6,0
			c-1,0-1.9,0.1-2.9,0.1c-0.1,0-0.2,0-0.3,0c-0.9-2.1-2.8-6.8-5-13.3c-1.5-4.6-3.2-10.1-4.7-16.2c-4.5-18.1-0.5-31.1-5.8-55.5
			c-5.2-24.1-15.3-49.8-10-76.6c0.1-0.3,0.1-0.7,0.2-1c0,0,0,0,0.1,0.1c1.4,1.6,23.6,26.9,25.8,51.1c2.3,25,8.3,48.1,8.5,65.3
			C93.7,834.3,93.7,847.2,93.6,857.4z"/>
		<defs>
			<filter id="Adobe_OpacityMaskFilter_8_" filterUnits="userSpaceOnUse" x="22.1" y="834" width="52.5" height="41.8">
				<feFlood  style="flood-color:white;flood-opacity:1" result="back"/>
				<feBlend  in="SourceGraphic" in2="back" mode="normal"/>
			</filter>
		</defs>
		<mask maskUnits="userSpaceOnUse" x="22.1" y="834" width="52.5" height="41.8" id="SVGID_14_">
			<g class="st22">
				<defs>
					<filter id="Adobe_OpacityMaskFilter_9_" filterUnits="userSpaceOnUse" x="22.1" y="834" width="52.5" height="41.8">
						<feFlood  style="flood-color:white;flood-opacity:1" result="back"/>
						<feBlend  in="SourceGraphic" in2="back" mode="normal"/>
					</filter>
				</defs>
				<mask maskUnits="userSpaceOnUse" x="22.1" y="834" width="52.5" height="41.8" id="SVGID_14_">
					<g class="st23">
					</g>
				</mask>
				
					<linearGradient id="SVGID_15_" gradientUnits="userSpaceOnUse" x1="830.6998" y1="730.2133" x2="855.8239" y2="890.2628" gradientTransform="matrix(1 0 0 1 -803.8926 0)">
					<stop  offset="0" style="stop-color:#999999"/>
					<stop  offset="1" style="stop-color:#FFFFFF"/>
				</linearGradient>
				<path class="st24" d="M74.5,871c-0.5,0-1-0.1-1.5-0.1c-0.9-0.1-1.7-0.2-2.5-0.3c-1.1-2.3-3.3-6.4-5.7-9.8
					c-1.3-1.9-2.7-3.5-4-4.5c-4.8-3.6-17.3-8.3-21.1-5.4c-3.6,2.7-11.9,19.9-14.3,24.4c-0.1,0.2-0.2,0.3-0.3,0.5
					c0,0-0.1-0.2-0.3-0.6c-1.6-3.9-9.7-26.5,11.3-41.2c0,0,11.7,1.4,20.6,7.4c2.1,1.4,4,3.1,5.5,5c1.4,1.7,2.7,3.6,3.8,5.5
					c0.2,0.3,0.4,0.6,0.6,1c1.2,2.1,2.3,4.3,3.3,6.3C72.6,864.8,74.1,869.5,74.5,871z"/>
			</g>
		</mask>
		
			<linearGradient id="SVGID_16_" gradientUnits="userSpaceOnUse" x1="830.6998" y1="730.2133" x2="855.8239" y2="890.2628" gradientTransform="matrix(1 0 0 1 -803.8926 0)">
			<stop  offset="0" style="stop-color:#FFB57D"/>
			<stop  offset="1" style="stop-color:#FF91A9"/>
		</linearGradient>
		<path class="st25" d="M74.5,871c-0.5,0-1-0.1-1.5-0.1c-0.9-0.1-1.7-0.2-2.5-0.3c-1.1-2.3-3.3-6.4-5.7-9.8c-1.3-1.9-2.7-3.5-4-4.5
			c-4.8-3.6-17.3-8.3-21.1-5.4c-3.6,2.7-11.9,19.9-14.3,24.4c-0.1,0.2-0.2,0.3-0.3,0.5c0,0-0.1-0.2-0.3-0.6
			c-1.6-3.9-9.7-26.5,11.3-41.2c0,0,11.7,1.4,20.6,7.4c2.1,1.4,4,3.1,5.5,5c1.4,1.7,2.7,3.6,3.8,5.5c0.2,0.3,0.4,0.6,0.6,1
			c1.2,2.1,2.3,4.3,3.3,6.3C72.6,864.8,74.1,869.5,74.5,871z"/>
		<path class="st26" d="M79.6,871.3c-0.2,0-0.5,0-0.7,0c-0.7-1.2-1.4-2.6-2.2-4.2c-0.5-1.1-1.1-2.2-1.6-3.4
			c-0.5-1.2-1.1-2.5-1.6-3.8c-1.1-2.7-2.2-5.7-3.3-8.8c-1.1-3.2-2.2-6.5-3.2-10c-2.1-7-4-14.5-5.7-22.1c-0.9-3.8-1.6-7.6-2.5-11.3
			c-0.8-3.7-1.8-7.4-2.7-10.9c-1.9-7-3.9-13.5-5.5-19.1c-0.8-2.8-1.5-5.4-2-7.7c-0.6-2.3-0.9-4.3-1.2-6c0-0.2-0.1-0.3-0.1-0.5v0
			c0,0,0.3,0.4,0.8,1.3c0.3,1.5,0.7,3.2,1.2,5.1c0.6,2.3,1.3,4.9,2.1,7.6C53,783,55,789.5,57,796.5c1,3.5,1.9,7.2,2.8,10.9
			c0.9,3.7,1.6,7.5,2.4,11.3c1.7,7.6,3.5,15.1,5.6,22.1c1,3.5,2.1,6.8,3.2,10c1.1,3.2,2.2,6.1,3.2,8.8c0.6,1.3,1.1,2.6,1.6,3.8
			c0.5,1.2,1.1,2.4,1.6,3.4C78.2,868.5,78.9,870,79.6,871.3z"/>
		<path class="st26" d="M88.1,871.1c-0.2,0-0.4,0-0.6,0c-0.1-0.8-0.2-1.8-0.4-2.8c-0.7-4.7-1.6-11.5-2.5-19.7
			c-0.2-2-0.5-4.2-0.7-6.4c-0.2-2.2-0.4-4.5-0.6-6.8c-0.2-2.3-0.4-4.8-0.5-7.2c-0.2-2.5-0.3-5-0.4-7.5c-0.2-5.1-0.3-10.4-1-15.7
			l-0.2-2l-0.3-2c-0.2-1.3-0.4-2.7-0.6-4c-0.4-2.7-1-5.4-1.4-8c-1.1-5.4-2.2-10.7-3.3-16c-0.5-2.6-1.1-5.3-1.6-7.8
			c-0.5-2.6-1-5.2-1.5-7.7c-1-5-1.9-9.9-3.1-14.4c-0.3-1.1-0.6-2.3-0.8-3.4c-0.3-1.1-0.6-2.2-0.9-3.2c-0.6-2.1-1.1-4.2-1.8-6.1
			c-0.6-2-1.2-3.8-1.8-5.6c-0.6-1.8-1.2-3.4-1.7-5c-1.1-3.2-2-5.9-2.8-8.2c-0.2-0.7-0.5-1.3-0.7-1.9c0.1-0.3,0.1-0.7,0.2-1
			c0,0,0,0,0.1,0.1c0.3,0.8,0.6,1.7,1,2.7c0.8,2.2,1.8,5,2.9,8.1c0.5,1.6,1.1,3.3,1.7,5c0.6,1.8,1.2,3.7,1.8,5.6
			c0.7,1.9,1.2,4,1.8,6.2c0.3,1.1,0.6,2.1,0.9,3.2c0.3,1.1,0.6,2.2,0.9,3.4c1.2,4.5,2.2,9.4,3.2,14.5c0.5,2.5,1,5.1,1.5,7.7
			c0.5,2.6,1.1,5.2,1.6,7.8c1.1,5.3,2.2,10.6,3.3,16c0.5,2.7,1,5.4,1.4,8.1c0.2,1.4,0.4,2.7,0.6,4l0.3,2l0.2,2
			c0.7,5.3,0.8,10.7,1,15.8c0.1,2.6,0.1,5.1,0.3,7.5c0.2,2.4,0.3,4.9,0.5,7.2c0.2,2.3,0.4,4.6,0.6,6.8c0.2,2.2,0.5,4.3,0.7,6.3
			c0.9,8.2,1.7,14.9,2.4,19.7C87.9,869.3,88,870.3,88.1,871.1z"/>
		<g class="st27">
			<path class="st26" d="M66.8,852.9c-6.8-4.3-22.4-13.7-29.5-12.4c-1.8,0.3-3.6,1.6-5.2,3.9c-4.8,6.8-7.2,20.9-6.7,30.8
				c-0.1,0.2-0.2,0.3-0.3,0.5c0,0-0.1-0.2-0.3-0.6c-0.5-10,2-24.1,6.8-31c1.7-2.4,3.5-3.8,5.5-4.1c3.9-0.7,10.7,1.6,20.1,6.7
				c3.4,1.8,6.5,3.7,8.9,5.2C66.4,852.3,66.6,852.6,66.8,852.9z"/>
		</g>
		<path class="st26" d="M126.3,693.5c0,0-0.1,0.8-0.3,2.3c-0.2,0.5-0.4,1-0.6,1.6c-0.4,1.2-0.9,2.6-1.4,4.1c-0.5,1.5-1,3.1-1.6,4.8
			c-1.1,3.5-2.5,7.3-3.8,11.6c-1.3,4.3-2.8,8.9-4.3,13.8c-0.7,2.5-1.4,5-2.1,7.6c-0.7,2.6-1.4,5.3-2.1,8c-0.7,2.7-1.3,5.5-1.9,8.3
			c-0.3,1.4-0.6,2.8-0.9,4.2c-0.3,1.4-0.6,2.9-0.8,4.3c-0.3,1.4-0.6,2.9-0.9,4.3c-0.3,1.5-0.5,2.9-0.7,4.4c-0.5,2.9-1,5.9-1.4,8.8
			c-0.4,3-0.9,5.9-1.2,8.9c-0.3,3-0.6,5.9-1,8.8c-0.5,5.9-1,11.6-1.3,17.2c-0.7,11.2-1.3,21.6-1.8,30.6c-0.3,4.5-0.6,8.6-0.7,12.2
			c-0.2,3.6-0.3,6.8-0.4,9.4c0,0.6,0,1.2-0.1,1.7c-0.2,0-0.4,0-0.6,0c0-0.6,0.1-1.2,0.1-1.8c0.1-2.6,0.2-5.8,0.4-9.4
			c0.1-3.6,0.4-7.7,0.6-12.2c0.5-8.9,1.1-19.4,1.7-30.6c0.3-5.6,0.8-11.4,1.3-17.2c0.3-2.9,0.6-5.9,0.9-8.8c0.3-3,0.8-5.9,1.1-8.9
			c0.4-3,0.9-5.9,1.4-8.9c0.2-1.5,0.5-2.9,0.7-4.4c0.3-1.5,0.6-2.9,0.8-4.3c0.3-1.4,0.6-2.9,0.8-4.3c0.3-1.4,0.6-2.8,1-4.2
			c0.7-2.8,1.2-5.6,2-8.3c0.7-2.7,1.4-5.4,2.1-8c0.7-2.6,1.5-5.1,2.2-7.6c1.5-4.9,3-9.5,4.3-13.8c1.3-4.3,2.7-8.1,3.9-11.6
			c0.6-1.7,1.2-3.3,1.7-4.8c0.6-1.5,1.1-2.8,1.5-4.1c0.4-1.1,0.8-2.1,1.1-3C126.2,693.7,126.3,693.5,126.3,693.5z"/>
		<path class="st26" d="M142.6,776.7c0,0,0,0.3-0.1,0.9c0,0,0,0,0,0c-0.9,1.2-2,2.8-3.1,4.6c-1.1,1.8-2.3,3.9-3.6,6.2
			c-2.5,4.6-5.2,10.2-8.1,16.1c-2.8,6-5.8,12.4-8.7,18.8c-1.4,3.2-2.9,6.4-4.3,9.6c-1.4,3.2-2.8,6.3-4.1,9.3c-0.3,0.8-0.7,1.5-1,2.2
			c-0.3,0.7-0.6,1.5-0.9,2.2c-0.6,1.5-1.2,2.9-1.7,4.3c-1,2.8-2.1,5.5-3,8c-0.9,2.5-1.7,4.8-2.4,6.8c-0.5,1.6-1,3-1.4,4.3
			c-0.2,0-0.4,0-0.6,0.1c0.4-1.3,0.8-2.8,1.4-4.5c0.7-2.1,1.4-4.4,2.3-6.8c0.8-2.5,1.9-5.2,2.9-8c0.6-1.4,1.1-2.9,1.7-4.3
			c0.3-0.8,0.6-1.5,0.9-2.3c0.3-0.7,0.6-1.5,1-2.3c1.3-3.1,2.7-6.2,4.1-9.3c1.4-3.2,2.8-6.4,4.3-9.6c2.9-6.4,5.8-12.9,8.7-18.8
			c2.9-5.9,5.7-11.4,8.2-16.1c2.6-4.6,4.9-8.4,6.9-10.8c0.1-0.2,0.3-0.3,0.4-0.5C142.5,776.7,142.6,776.7,142.6,776.7z"/>
	</g>
	
		<ellipse transform="matrix(0.9252 -0.3796 0.3796 0.9252 -52.4955 335.5771)" class="st28" cx="824.7" cy="300.9" rx="23.1" ry="23.1"/>
	<circle class="st28" cx="1329.6" cy="138.2" r="11.9"/>
	
		<ellipse transform="matrix(0.6639 -0.7478 0.7478 0.6639 227.0036 776.53)" class="st28" cx="977.4" cy="135.7" rx="15.9" ry="15.9"/>
	<circle class="st28" cx="732.8" cy="721.1" r="36.3"/>
	<path class="st29" d="M1482,255.3c10.3-20.2,2.4-44.9-17.8-55.2c-20.2-10.3-58.9-9.6-69.2,10.6s20.7,37.5,33.3,56.3
		C1446,293.1,1471.6,275.5,1482,255.3z"/>
	<path class="st30" d="M1393.8,777.3c14.6,9.4,34,5.2,43.5-9.4s11.8-44.2-2.8-53.6c-14.6-9.4-30.1,12.9-45.4,21.2
		C1367.7,747,1379.3,767.9,1393.8,777.3z"/>
	<path class="st30" d="M793.5,135.3c-16-14.9-41.1-14-56,2.1c-14.9,16-24.3,52.3-8.3,67.2c16,14.9,40.3-9.4,61-16.3
		C819.2,178.7,809.5,150.2,793.5,135.3z"/>
	<g>
		<g>
			
				<linearGradient id="SVGID_17_" gradientUnits="userSpaceOnUse" x1="1661.407" y1="611.4093" x2="1661.407" y2="681.1194" gradientTransform="matrix(1 0 0 1 -546.8982 0)">
				<stop  offset="0" style="stop-color:#435DF1"/>
				<stop  offset="0.327" style="stop-color:#4333F1"/>
				<stop  offset="1" style="stop-color:#4C008C"/>
			</linearGradient>
			<path class="st31" d="M1137.1,681.1H1117c0-10.8-7.1-21.4-12.4-30.4c-0.2-0.3-0.3-0.6-0.5-0.9c-4.6-7.9-10.5-15.2-12.3-24.4
				c-0.5-2.7-0.6-5.6,0.6-8c1.3-2.6,4-4.2,6.9-4.9C1132.8,603.9,1139.8,648.6,1137.1,681.1z"/>
			<path class="st32" d="M1128.4,681.1h-0.9c-0.1-4.6-0.6-9.1-1.3-13.6c-0.9-5.4-2.2-10.8-4-16c-3.5-10.4-8.8-20.2-15.8-28.7
				c-0.6-0.7-0.1-1.1,0.5-0.5c7.6,8.1,13.5,18,17,28.6c1.8,5.3,3,10.8,3.7,16.3C1128.4,671.9,1128.6,676.5,1128.4,681.1z"/>
		</g>
		
			<linearGradient id="SVGID_18_" gradientUnits="userSpaceOnUse" x1="-2878.5857" y1="626.2216" x2="-2878.5857" y2="681.1194" gradientTransform="matrix(-1 0 0 1 -1687.6494 0)">
			<stop  offset="0" style="stop-color:#435DF1"/>
			<stop  offset="0.327" style="stop-color:#4333F1"/>
			<stop  offset="1" style="stop-color:#4C008C"/>
		</linearGradient>
		<path class="st33" d="M1172.9,681.1h20.5c0-26.2,29.7-52,7.3-54.7c-8-1-13.6,3.1-17.7,9.4C1172.9,651.5,1172.9,681.1,1172.9,681.1
			z"/>
		
			<linearGradient id="SVGID_19_" gradientUnits="userSpaceOnUse" x1="-2831.2578" y1="557.3487" x2="-2831.2578" y2="681.1194" gradientTransform="matrix(-1 0 0 1 -1687.6494 0)">
			<stop  offset="0" style="stop-color:#435DF1"/>
			<stop  offset="0.327" style="stop-color:#4333F1"/>
			<stop  offset="1" style="stop-color:#4C008C"/>
		</linearGradient>
		<path class="st34" d="M1150.5,681.1h25.1c4.1-37.8,3-132.4-51.7-123.1C1081.9,565.1,1149.4,619.7,1150.5,681.1z"/>
		<g>
			<path class="st32" d="M1136.8,578.8c3.3,3.7,6,7.9,8.5,12.2c2.4,4.3,4.4,8.9,6.2,13.5c1.7,4.6,3.2,9.4,4.4,14.2
				c1.2,4.8,2.3,9.7,3.1,14.6c1.7,9.8,2.8,19.7,3.4,29.7c0.4,6,0.6,12,0.7,18h1.7c0.2-6,0.2-12.1,0-18.1
				c-0.4-10.1-1.3-20.1-3.1-30.1c-0.9-5-2-9.9-3.3-14.8c-1.3-4.9-2.9-9.7-4.8-14.4c-0.9-2.4-2-4.6-3.1-6.9c-1.2-2.2-2.3-4.5-3.7-6.6
				c-2.6-4.3-5.6-8.4-9.2-12C1136.5,577,1135.8,577.6,1136.8,578.8z"/>
		</g>
		<g>
			
				<linearGradient id="SVGID_20_" gradientUnits="userSpaceOnUse" x1="-2824.7449" y1="637.2465" x2="-2824.7449" y2="681.1194" gradientTransform="matrix(-1 0 0 1 -1687.6494 0)">
				<stop  offset="0" style="stop-color:#435DF1"/>
				<stop  offset="0.327" style="stop-color:#4333F1"/>
				<stop  offset="1" style="stop-color:#4C008C"/>
			</linearGradient>
			<path class="st35" d="M1130.8,681.1h20.8c0,0,5.5-43.9-18.1-43.9C1112.1,637.3,1126.4,664.4,1130.8,681.1z"/>
			<g>
				<path class="st32" d="M1137,648.1c3.1,9.9,4.4,20.2,5.1,30.5c0,0.8,0.1,1.7,0.1,2.5h1.8c0-0.9-0.1-1.8-0.1-2.6
					c-0.8-10.4-2.5-20.9-6.3-30.6C1137.3,647.1,1136.7,647.3,1137,648.1z"/>
			</g>
		</g>
		<g>
			<path class="st32" d="M1180.7,681.1h1.3c0.5-4,1.1-8,1.8-11.9c1.1-5.5,2.5-10.9,4.4-16.2c0.5-1.3,1.1-2.6,1.6-3.9
				c0.3-0.6,0.5-1.3,0.8-1.9l0.9-1.9l0.9-1.9c0.3-0.6,0.6-1.3,1-1.8l2.2-3.6c0.5-0.7,0.1-1-0.4-0.3l-2.4,3.5
				c-0.4,0.6-0.7,1.2-1.1,1.8l-1,1.9l-1,1.9c-0.3,0.6-0.6,1.3-0.9,1.9c-0.6,1.3-1.2,2.6-1.7,3.9c-2,5.3-3.6,10.8-4.7,16.4
				C1181.7,673,1181.1,677.1,1180.7,681.1z"/>
		</g>
	</g>
	<g>
		<g>
			
				<linearGradient id="SVGID_21_" gradientUnits="userSpaceOnUse" x1="-3858.8848" y1="1684.4222" x2="-3858.8848" y2="1803.7626" gradientTransform="matrix(-0.9038 0.428 0.428 0.9038 -3044.2329 675.1204)">
				<stop  offset="0" style="stop-color:#26E6FF"/>
				<stop  offset="0.4856" style="stop-color:#4189FF"/>
				<stop  offset="0.8345" style="stop-color:#534CFF"/>
				<stop  offset="1" style="stop-color:#5A35FF"/>
			</linearGradient>
			<path class="st36" d="M1156.5,619.5c5-5.4,18.1,4.8,18.1,4.8c-6.1-7.9-24.1-27.5-17.5-36.2c5.3-7.1,16.1-0.9,21.1,5.1
				c-4.9-7.2-22.1-29-15.1-35.2c6.1-5.4,15.5,4.5,18.9,11c-1.6-7.4-9-31.7,5.3-33.3c13.9-1.2,14.4,23.4,13.9,32.6
				c2.1-6.1,8.2-19.3,15.9-13.4c12.4,9.4-10.9,40.1-10.9,40.1c0,0,16.1-12.3,19.9-1.1c5.4,15.8-10.1,30.3-23.3,35.9
				c18.6-8.5,23,9.9,11.8,21.7c-9.4,9.9-23.8,13.9-37.1,10.6C1167.5,656.9,1149,627.7,1156.5,619.5z"/>
			
				<linearGradient id="SVGID_22_" gradientUnits="userSpaceOnUse" x1="-3899.1123" y1="1752.3687" x2="-3801.6191" y2="1752.3687" gradientTransform="matrix(-0.9038 0.428 0.428 0.9038 -3044.2329 675.1204)">
				<stop  offset="0" style="stop-color:#5277FF"/>
				<stop  offset="1" style="stop-color:#30009F"/>
			</linearGradient>
			<path class="st37" d="M1171.3,637.8c1.6,2.1,3.4,4.2,5.2,6.2c1.4,1.5,2.9,3,4.4,4.3c3.2-9.8,5.8-19.9,7.6-30.1
				c-2.3-1.6-4.6-3.4-6.7-5.2c-2.3-2-4.6-4.3-6.7-6.6c-2.1-2.3-4.2-4.7-6.1-7.1c-1.9-2.5-3.8-5-5.4-7.6c1.7,2.6,3.6,5,5.6,7.4
				c2,2.4,4.1,4.7,6.3,6.8c2.2,2.2,4.5,4.3,6.9,6.2c2,1.6,4.2,3.1,6.3,4.6c1.4-7.9,2.3-16.1,2.8-24.2c-2.3-2.1-4.5-4.3-6.6-6.6
				c-1.1-1.2-2.1-2.5-3.2-3.7c-1-1.3-2-2.6-3-3.9c-1.9-2.6-3.8-5.3-5.6-8c-1.8-2.7-3.5-5.5-5-8.3c1.6,2.8,3.4,5.5,5.2,8.1
				c1.8,2.6,3.8,5.2,5.8,7.7c1,1.2,2.1,2.5,3.1,3.7c1.1,1.2,2.1,2.4,3.3,3.5c1.9,2,4,3.8,6,5.6c0.5-16-0.4-31.4-2.7-47.3
				c2.7,15.8,4,31.3,4,47.4c2.2-1.5,4.3-3.1,6.3-5c2.3-2.2,4.5-4.6,6.5-7.2c2-2.6,3.9-5.5,5.6-8.4c1.7-3,3.3-6.2,4.6-9.5
				c-1.2,3.4-2.7,6.7-4.4,9.8c-1.6,3.1-3.5,6-5.4,8.8c-1.9,2.8-4.1,5.3-6.3,7.6c-2.2,2.2-4.5,4.1-6.9,5.8
				c-0.4,8.3-1.1,16.4-2.2,24.6c2.5-0.3,5-0.8,7.4-1.7c2.8-1.1,5.5-2.5,8.2-4.3c2.6-1.8,5.2-3.8,7.6-6.1c2.4-2.3,4.7-4.8,6.8-7.6
				c-2,2.9-4.3,5.6-6.6,8c-2.4,2.4-4.9,4.6-7.5,6.5c-2.6,1.9-5.4,3.5-8.2,4.7c-2.5,1.1-5.2,1.8-7.8,2.1c-1.6,10.3-3.9,20.5-6.9,30.5
				c2.3-0.2,4.6-0.5,6.9-1c2.9-0.6,5.8-1.5,8.7-2.5c2.9-1.1,5.7-2.3,8.6-3.8c2.8-1.5,5.6-3.1,8.3-5c-2.7,2-5.4,3.8-8.2,5.4
				c-2.8,1.6-5.7,3-8.5,4.2c-2.9,1.2-5.8,2.2-8.7,2.9c-2.5,0.6-5,1-7.5,1.3c-3.7,11.7-8.1,23.2-13.7,34.1c-1.4-0.7-2.1-1.1-3.4-1.8
				c5.8-10.6,10.5-21.8,14.4-33.2c-1.6-1.6-3.2-3.2-4.6-5c-1.7-2.1-3.4-4.3-4.9-6.6c-1.5-2.2-3.1-4.5-4.5-6.8
				c-1.4-2.3-2.8-4.6-4.1-7c1.4,2.3,2.9,4.6,4.4,6.8C1168,633.5,1169.6,635.7,1171.3,637.8z"/>
		</g>
	</g>
	<g>
		<g>
			
				<linearGradient id="SVGID_23_" gradientUnits="userSpaceOnUse" x1="-4141.1289" y1="257.0941" x2="-4141.1289" y2="340.7991" gradientTransform="matrix(-0.9853 -0.171 -0.171 0.9853 -2810.3386 -366.314)">
				<stop  offset="0" style="stop-color:#26E6FF"/>
				<stop  offset="0.4856" style="stop-color:#4189FF"/>
				<stop  offset="0.8345" style="stop-color:#534CFF"/>
				<stop  offset="1" style="stop-color:#5A35FF"/>
			</linearGradient>
			<path class="st38" d="M1191.7,634.2c5-1.1,8.5,10.1,8.5,10.1c-0.3-7-2.7-25.5,4.6-27.8c5.9-1.9,9.6,6,10,11.5
				c0.1-6.1-1-25.6,5.6-26.3c5.7-0.6,7.1,8.9,6.4,13.9c2-4.9,7.6-21.8,16.5-16.9c8.4,4.9-1.2,19.2-5.2,24.3
				c3.7-2.6,12.5-7.7,14.5-1.3c3.3,10.4-22.4,18.6-22.4,18.6c0,0,14.2-0.5,11.8,7.4c-3.3,11.2-18,13.3-27.8,11.2
				c14.1,2.7,9.2,15-2,17.2c-9.4,1.9-19.3-1.7-25.6-8.9C1182.9,660.1,1184.1,635.8,1191.7,634.2z"/>
			
				<linearGradient id="SVGID_24_" gradientUnits="userSpaceOnUse" x1="-4169.3442" y1="304.7515" x2="-4100.9629" y2="304.7515" gradientTransform="matrix(-0.9853 -0.171 -0.171 0.9853 -2810.3386 -366.314)">
				<stop  offset="0" style="stop-color:#5277FF"/>
				<stop  offset="1" style="stop-color:#30009F"/>
			</linearGradient>
			<path class="st39" d="M1192.8,650.6c0.1,1.9,0.2,3.8,0.4,5.6c0.2,1.4,0.4,2.9,0.8,4.2c5.8-4.3,11.4-9.1,16.5-14.2
				c-0.7-1.9-1.3-3.8-1.7-5.7c-0.5-2.1-0.9-4.3-1.2-6.5c-0.3-2.2-0.5-4.4-0.6-6.6c-0.1-2.2-0.1-4.4,0-6.5c-0.1,2.2,0.1,4.3,0.3,6.5
				c0.2,2.2,0.5,4.3,0.9,6.5c0.4,2.1,0.9,4.3,1.5,6.3c0.5,1.8,1.1,3.5,1.8,5.2c4-4,7.9-8.3,11.4-12.7c-0.4-2.1-0.9-4.3-1.1-6.5
				c-0.2-1.1-0.2-2.3-0.3-3.4c0-1.1-0.1-2.3-0.2-3.4c-0.1-2.3-0.1-4.6,0-6.8c0.1-2.3,0.2-4.5,0.5-6.8c-0.2,2.2-0.3,4.5-0.3,6.8
				c0,2.3,0.1,4.5,0.2,6.8c0.1,1.1,0.2,2.2,0.3,3.4c0.2,1.1,0.3,2.2,0.5,3.3c0.3,1.9,0.7,3.8,1.2,5.7c6.7-9,12.5-18.2,17.6-28.2
				c-4.8,10.2-10.3,19.6-16.9,28.8c1.8,0,3.7,0,5.6-0.3c2.2-0.3,4.4-0.8,6.6-1.5c2.2-0.7,4.4-1.6,6.6-2.6c2.2-1,4.4-2.2,6.5-3.6
				c-2.1,1.5-4.3,2.7-6.5,3.9c-2.2,1.1-4.4,2.1-6.6,2.9c-2.2,0.8-4.5,1.4-6.7,1.8c-2.1,0.4-4.2,0.5-6.3,0.5
				c-3.6,4.6-7.3,8.9-11.2,13.2c1.5,0.8,3.2,1.5,4.9,2c2,0.5,4.2,0.8,6.4,0.8c2.2,0.1,4.5-0.1,6.8-0.4c2.3-0.3,4.7-0.9,7-1.6
				c-2.3,0.8-4.7,1.5-7,1.9c-2.3,0.4-4.7,0.7-6.9,0.7c-2.3,0-4.5-0.2-6.6-0.6c-1.9-0.4-3.7-1.1-5.4-1.9
				c-5.1,5.3-10.5,10.2-16.3,14.7c1.4,0.8,2.8,1.6,4.4,2.3c1.9,0.8,3.9,1.5,6,2.1c2.1,0.5,4.2,1,6.4,1.3c2.2,0.3,4.5,0.5,6.8,0.5
				c-2.4,0.1-4.7,0-6.9-0.2c-2.2-0.2-4.5-0.6-6.6-1c-2.1-0.5-4.2-1.1-6.2-1.9c-1.7-0.6-3.3-1.4-4.8-2.3c-6.8,5.2-14,10-21.6,14
				c-0.5-1-0.7-1.5-1.2-2.4c7.6-3.8,14.8-8.3,21.7-13.2c-0.3-1.6-0.5-3.1-0.6-4.7c-0.1-1.9-0.2-3.8-0.2-5.8c0-1.9,0.1-3.8,0.2-5.7
				c0.1-1.9,0.3-3.8,0.5-5.7c-0.1,1.9-0.2,3.8-0.2,5.7C1192.7,646.8,1192.7,648.7,1192.8,650.6z"/>
		</g>
	</g>
	<g>
		<linearGradient id="SVGID_25_" gradientUnits="userSpaceOnUse" x1="943.2569" y1="541.0577" x2="1063.2671" y2="748.9216">
			<stop  offset="0" style="stop-color:#878CF0"/>
			<stop  offset="1" style="stop-color:#685ED7"/>
		</linearGradient>
		<rect x="898.5" y="566.9" class="st40" width="209.6" height="156.1"/>
		<g>
			<polyline class="st41" points="966,608.8 1085.5,608.8 1085.5,597.9 966,597.9 			"/>
			<polyline class="st41" points="966,632.6 1085.5,632.6 1085.5,621.7 966,621.7 			"/>
			<polygon class="st41" points="912.1,614.9 926.4,630.5 950.1,602.3 941.8,595.3 926,614 920.1,607.5 912.1,614.9 			"/>
			<polyline class="st41" points="966,656.4 1085.5,656.4 1085.5,645.5 966,645.5 			"/>
			<polyline class="st41" points="966,680.2 1037.2,680.2 1037.2,669.3 966,669.3 			"/>
		</g>
	</g>
	<path id="XMLID_14_" class="st42" d="M1279.5,832.2l18.6-6.4l-2.7-8c9.8-5.1,18-12.4,24-21.2l7.6,3.7l8.7-17.7l-7.6-3.7
		c3.2-10.1,4-21,2-31.9l8-2.7l-6.4-18.6l-8,2.7c-5.1-9.8-12.4-18-21.2-24l3.7-7.6l-19.3-9.5l-2.7,8.2c-10.1-3.2-20.4-3.9-31.3-1.9
		l-2.7-8l-18.6,6.4l2.7,8c-9.8,5.1-18,12.4-24,21.2l-7.6-3.7l-8.7,17.7l7.6,3.7c-3.2,10.1-4,21-2,31.9l-8,2.7l6.4,18.6l8-2.7
		c5.1,9.8,12.4,18,21.2,24l-3.7,7.6l17.7,8.7l3.7-7.6c10.1,3.2,21,4,31.9,2L1279.5,832.2z M1285.7,804.3
		c-28.7,13-61.9-3.3-69.3-33.9c-5.3-22.3,5.7-46,26.3-56.1c29.5-14.5,64.4,2.6,71.1,34.8C1318.5,771.6,1306.6,794.8,1285.7,804.3z"
		/>
	<rect x="893.2" y="837.5" class="st43" width="437" height="29"/>
	<path class="st43" d="M948.2,837.2c0,0,6.8-229.2,4.4-333.9s-4.8-178.9-4.8-178.9h29.3c0,0-4.5,125.7-5.6,195.4
		c-1.1,69.8,2.1,303.5,4.3,317.9l-27.7-0.1L948.2,837.2z"/>
	<path class="st43" d="M1244.2,837.2c0,0,6.8-229.2,4.4-333.9c-2.4-104.6-4.8-178.9-4.8-178.9h29.3c0,0-4.5,125.7-5.6,195.4
		c-1.1,69.8,2.1,303.5,4.3,317.9l-27.7-0.1L1244.2,837.2z"/>
	<rect x="998.3" y="325" class="st44" width="229.4" height="30.8"/>
	<rect x="866.3" y="425.9" class="st45" width="192.9" height="175.3"/>
	<linearGradient id="SVGID_26_" gradientUnits="userSpaceOnUse" x1="866.703" y1="441.261" x2="1059.1962" y2="441.261">
		<stop  offset="0" style="stop-color:#3478FF"/>
		<stop  offset="1" style="stop-color:#482EBD"/>
	</linearGradient>
	<rect x="866.7" y="425.5" class="st46" width="192.5" height="31.5"/>
	
		<ellipse id="XMLID_13_" transform="matrix(0.4308 -0.9025 0.9025 0.4308 31.8578 1577.1184)" class="st42" cx="1266.1" cy="763.3" rx="34.5" ry="34.5"/>
	<rect x="893.2" y="296.5" class="st43" width="437" height="29"/>
	<path class="st45" d="M1128.2,581.3c-0.2-7.9,2.3-15.4,5.3-22.5c2.7-8,9.4-15.2,14.5-21.8c6.2-8,12.7-15.7,19.4-23.3
		c29.7-33.9,74.9-86.1,47.7-133.8c-2.5-4.5-5.5-8.6-8.9-12.5c-2.1-2.4-9.5-12.1-12.7-12.1c0,0-171.2,0.5-170.9,0.5
		c0,0-43.1,39.4-20.8,83.1c22.4,43.7,29.3,45.8,55.9,79.9c10.5,13.4,23.1,26.5,30.5,42c14.3,30.1-21.1,66.4-40.6,84.8
		c-34.7,32.7-58.7,73.1-48.3,115.8c0,0,56-6.4,80.8-22.4c24.8-16,30.6-22.6,30.6-22.6s32.7,37.8,83.9,41.9l21.8-0.3
		c-7.6,0.9-14.8,0.9-21.8,0.3l-195.4,3.1c0,0,3.2,27.6,19.6,47.9c0,0,169.9,0,170.1,0c8.2,0,21.9-35.4,24.4-41.1
		c22.1-52.2-15.8-95.6-49.9-131.1C1148.5,621.4,1128.8,604.8,1128.2,581.3z"/>
	<linearGradient id="SVGID_27_" gradientUnits="userSpaceOnUse" x1="1073.2242" y1="718.6663" x2="1120.7136" y2="800.9202">
		<stop  offset="0" style="stop-color:#FFB57D"/>
		<stop  offset="1" style="stop-color:#FF91A9"/>
	</linearGradient>
	<path class="st47" d="M1194.6,758.2l-195.4,3.1c0,0,56-6.4,80.8-22.4s30.6-22.6,30.6-22.6S1143.4,754.1,1194.6,758.2z"/>
	<linearGradient id="SVGID_28_" gradientUnits="userSpaceOnUse" x1="1168.0809" y1="614.0646" x2="966.712" y2="497.8042">
		<stop  offset="0" style="stop-color:#FFB57D"/>
		<stop  offset="1" style="stop-color:#FF91A9"/>
	</linearGradient>
	<path class="st48" d="M1004.1,433.1c0,0,16,42.3,45.1,68.7c29.2,26.4,57.9,77.9,59.1,81.9c1.2,4,2.4,129.8,2.4,129.8l2.8-129.8
		c0,0,6-20.4,18-35.9c12-15.6,46.7-57.5,46.7-57.5s-25.4-29.2-65.9-15c-40.5,14.2-80.7-18.2-90.3-25.6
		C1012.5,442.3,1004.1,433.1,1004.1,433.1z"/>
	<linearGradient id="SVGID_29_" gradientUnits="userSpaceOnUse" x1="878.6839" y1="525.327" x2="993.7006" y2="525.327">
		<stop  offset="0" style="stop-color:#878CF0"/>
		<stop  offset="1" style="stop-color:#685ED7"/>
	</linearGradient>
	<circle class="st49" cx="936.2" cy="525.3" r="57.5"/>
	<circle class="st41" cx="936.2" cy="525.6" r="34.9"/>
	<circle class="st41" cx="1016.3" cy="482.7" r="11.3"/>
	<circle class="st41" cx="1016.3" cy="523.2" r="11.3"/>
	<circle class="st41" cx="1016.3" cy="563.7" r="11.3"/>
	<rect x="972.9" y="473" class="st50" width="44.4" height="2.8"/>
	<rect x="889.1" y="532.6" class="st50" width="127.1" height="1.6"/>
	<rect x="978.8" y="522.7" class="st50" width="38.2" height="2.4"/>
	<path class="st51" d="M1312.9,823.4"/>
	<path class="st51" d="M1176.4,780.7c0,0-0.4-2.4,3.7-1.7c4.2,0.7,6.4-0.5,10,0.8"/>
	<path class="st52" d="M1182.5,805.5c-0.1,0-0.1-0.1-0.1-0.1C1182.4,805.4,1182.5,805.4,1182.5,805.5z"/>
	<path class="st52" d="M1186.4,808.2c-0.1-0.1-0.2-0.1-0.3-0.2C1186.2,808.1,1186.3,808.2,1186.4,808.2z"/>
	<path class="st52" d="M1185,807.3c-0.6-0.4-1.1-0.8-1.5-1.1C1184,806.5,1184.5,806.9,1185,807.3z"/>
	<path class="st52" d="M1186.8,808.5c-0.1-0.1-0.2-0.2-0.4-0.3C1186.6,808.4,1186.8,808.5,1186.8,808.5z"/>
	<path class="st52" d="M1182.2,805.2C1182.2,805.2,1182.2,805.2,1182.2,805.2L1182.2,805.2z"/>
	<path class="st53" d="M1186.9,808.6C1186.9,808.6,1186.9,808.6,1186.9,808.6C1186.9,808.6,1186.9,808.6,1186.9,808.6z"/>
	<path class="st53" d="M1186.5,808.3C1186.5,808.3,1186.4,808.3,1186.5,808.3C1186.4,808.3,1186.5,808.3,1186.5,808.3z"/>
	<path class="st53" d="M1186.1,808c-0.3-0.2-0.7-0.5-1.1-0.8C1185.4,807.5,1185.7,807.8,1186.1,808z"/>
	<path class="st53" d="M1183.5,806.2c-0.4-0.3-0.8-0.6-1-0.7C1182.7,805.6,1183.1,805.9,1183.5,806.2z"/>
	<linearGradient id="SVGID_30_" gradientUnits="userSpaceOnUse" x1="1045.0178" y1="835.4413" x2="1169.4908" y2="710.9683">
		<stop  offset="0" style="stop-color:#FFB57D"/>
		<stop  offset="1" style="stop-color:#FF91A9"/>
	</linearGradient>
	<path class="st54" d="M1158.4,794.4C1158.4,794.4,1158.4,794.4,1158.4,794.4C1158.4,794.4,1158.4,794.4,1158.4,794.4
		c-2.6,0-5-0.3-6.1-1.2c0,0,3.3-3.8,9.7-5.4c6.4-1.6,6.7,0.6,6.7,0.6s9.5,11.3,15,20.2l3.2,0c0,0,0,0-0.1,0c-0.1,0-0.2-0.1-0.4-0.3
		c0,0,0,0-0.1,0c-0.1-0.1-0.2-0.1-0.3-0.2c-0.4-0.3-0.8-0.5-1.1-0.8c-0.5-0.4-1-0.7-1.5-1.1c-0.5-0.3-0.8-0.6-1-0.7
		c-0.1,0-0.1-0.1-0.1-0.1c-0.1-0.1-0.1-0.1-0.2-0.1c0,0,0,0,0,0c0,0,0.1,0.1,0.2,0.1c0,0,0.1,0.1,0.1,0.1c0.3,0.2,0.6,0.4,1,0.7
		c0.4,0.3,0.9,0.6,1.5,1.1c0.4,0.3,0.8,0.6,1.1,0.8c0.1,0.1,0.2,0.1,0.3,0.2c0,0,0,0,0.1,0c0.1,0.1,0.2,0.2,0.4,0.3c0,0,0.1,0,0.1,0
		c10.7,7.6,29.5-50.7,29.5-50.7l-217.1,3.5c6.2,35.9,19.6,47.9,19.6,47.9l151.9-0.6c-2.3-5.7-4.4-11.7-4.7-14.8
		C1166.1,793.8,1162.2,794.4,1158.4,794.4z"/>
	<path class="st53" d="M1182.4,805.4c-0.1-0.1-0.1-0.1-0.2-0.1C1182.2,805.3,1182.3,805.3,1182.4,805.4z"/>
	<polygon class="st51" points="962.8,838 962.8,838 964.2,838.1 962.8,838 	"/>
	<path class="st42" d="M968.1,830.5L968.1,830.5L968.1,830.5L968.1,830.5c-0.9,2.5-2.2,6.4-2.6,7.7l0,0l0,0l0,0l10.3,0.7
		c0.3-1.4-0.5-2.8-0.5-2.8c-1.7-3.8-1.9-7-1.6-9.9c0,0,0,0,0,0C973.4,826.5,970.8,827.9,968.1,830.5z"/>
	<path class="st51" d="M968.1,830.5c-2,1.9-4.1,4.5-5.3,7.5l0,0l1.4,0.1l1.4,0.1C965.9,836.9,967.2,833,968.1,830.5z"/>
	<polygon class="st51" points="964.2,838.1 965.5,838.2 965.5,838.2 	"/>
	<path class="st43" d="M969.8,773.4l-2.5,51.6l-4.5,13c1.2-3,3.3-5.6,5.3-7.5v0c2.7-2.6,5.3-4.1,5.6-4.2c0,0,0,0,0,0
		c0.1-1,0.2-2.1,0.3-3c0.4-3.7,10.4-28.2,11-41.6c0.1-2.1,0.3-4.9,0.6-8.2H969.8L969.8,773.4z"/>
	<path class="st55" d="M1001.5,672.7c0,0-0.6,6.5,0.6,7c1.3,0.5,7.9-0.9,7.9-0.9c2.6-1.8,3.7-7.1,3-8.7c-0.6-1.6-3.9-0.6-3.9-0.6
		S1005.3,673.5,1001.5,672.7z"/>
	<path class="st51" d="M978.6,773.3"/>
	<path class="st43" d="M977.7,599.5c0,0,7.6,0.1,10.5-1.1c2.1-0.8,2.9-1.9,3.1-2.4c0,0,0,0,0,0c0.1-0.2,0.1-0.3,0.1-0.3
		s0,0.1-0.1,0.3c0.5-1.2,2.8-1.5,2.7-4.4c-0.1-3.3-9.2-4.6-14.7-2.7s-7.7,5.2-8.6,11.8s2.7,6.6,2.7,6.6l3.4-0.2L977.7,599.5z"/>
	<path class="st55" d="M989.7,627.5l-0.4-6.7c2.7,0.9,4.4-0.8,4.4-0.8c4.2-5.2,1.7-10.5-0.2-11.3c-1.9-0.8-2-10-2.2-12
		c0-0.3,0-0.5,0.1-0.7c-0.2,0.5-1,1.6-3.1,2.4c-2.9,1.1-10.5,1.1-10.5,1.1l-0.9,7.6l-3.4,0.2c-0.6,6.7,5.3,10.1,5.3,10.1
		s0.6,4-0.2,7.8C978.6,625.2,985.4,629.6,989.7,627.5z"/>
	<path class="st55" d="M1072.4,616.1c-4.1,0.3-8.4,4.1-8.4,4.1s-0.2-4.1-2.3-2.7c-1.8,1.2,0.6,6.5-0.9,8.6c1,0.1,6.4,0.7,6.6,1.3
		c1.9-2.6,4.4-3.5,5.2-4.2C1073.7,622.3,1076.5,615.8,1072.4,616.1z"/>
	<linearGradient id="SVGID_31_" gradientUnits="userSpaceOnUse" x1="962.0049" y1="727.0347" x2="998.2874" y2="727.0347">
		<stop  offset="0" style="stop-color:#FF697D"/>
		<stop  offset="1" style="stop-color:#DE2276"/>
	</linearGradient>
	<path class="st56" d="M978.6,773.3l1.5-84.2l-0.2,0l0.2,0l0.1-5.4l-0.1,5.4l17.8-0.2c0,0,0.5-6.3,0.1-8c-19,4.6-34.9,2.7-34.9,2.7
		c-2.2,6.7-0.9,45.7-0.9,45.7l0.6,43.6L978.6,773.3z"/>
	<g>
		<defs>
			<path id="XMLID_12_" d="M1224.6,603.8l-0.9-2.4l-1.1-4.7c0,0-14-9.6-16.9-13.9c-2.9-4.3-2.7-19-1.9-19.6c0.8-0.6,1.4,0,1.4,0
				s3.6,14.5,5.9,16.4c2.3,1.9,9.4,7.8,14.7,8.6l0.8-1.1l9-2.8l2.8-0.1c0,0-1.3-11.9-2.1-12.6c-4.5-4.2-19.6-11.7-19.6-11.7l0.7-0.7
				c0,0,19.7,4.1,23.9,9.7c1.3,1.7,4,14.5,5,22.2c1.1,7.7-7.6,11.3-7.6,11.3S1225.5,606.2,1224.6,603.8z"/>
		</defs>
		
			<linearGradient id="XMLID_2_" gradientUnits="userSpaceOnUse" x1="1196.8815" y1="645.1332" x2="1239.2813" y2="645.1332" gradientTransform="matrix(0.9995 -3.258193e-02 3.258193e-02 0.9995 -13.5871 -23.2684)">
			<stop  offset="1.915560e-03" style="stop-color:#E5B5BB"/>
			<stop  offset="1" style="stop-color:#EBD1BD"/>
		</linearGradient>
		<use xlink:href="#XMLID_12_"  style="overflow:visible;fill:url(#XMLID_2_);"/>
		<clipPath id="XMLID_3_">
			<use xlink:href="#XMLID_12_"  style="overflow:visible;"/>
		</clipPath>
		
			<linearGradient id="SVGID_32_" gradientUnits="userSpaceOnUse" x1="1228.7555" y1="647.9801" x2="1245.5037" y2="647.9801" gradientTransform="matrix(0.9995 -3.258193e-02 3.258193e-02 0.9995 -13.5871 -23.2684)">
			<stop  offset="1.915560e-03" style="stop-color:#E5B5BB"/>
			<stop  offset="1" style="stop-color:#EBD1BD"/>
		</linearGradient>
		<path class="st57" d="M1238.3,573.7c-0.1,0.4,3.6,14.4,9.3,11.7c5.7-2.7,5,8.9,5,8.9l-14.2-1.4l-3-14L1238.3,573.7"/>
	</g>
	<g>
		<defs>
			<path id="XMLID_11_" d="M1277.2,683.1c0.6,0,5,6.4,5,6.4l-0.8,3.9c0,0-4.4,1.7-2.8,2.2c1.7,0.6,5.8,0,5.8,0l2.2-6.9l-3-1.7
				l-3.3-6.4L1277.2,683.1z"/>
		</defs>
		<linearGradient id="XMLID_5_" gradientUnits="userSpaceOnUse" x1="1277.2357" y1="688.1618" x2="1286.6304" y2="688.1618">
			<stop  offset="1.915560e-03" style="stop-color:#E5B5BB"/>
			<stop  offset="1" style="stop-color:#EBD1BD"/>
		</linearGradient>
		<use xlink:href="#XMLID_11_"  style="overflow:visible;fill:url(#XMLID_5_);"/>
		<clipPath id="XMLID_6_">
			<use xlink:href="#XMLID_11_"  style="overflow:visible;"/>
		</clipPath>
		<linearGradient id="SVGID_33_" gradientUnits="userSpaceOnUse" x1="1274.6733" y1="691.0853" x2="1295.3264" y2="691.0853">
			<stop  offset="0" style="stop-color:#3D365F"/>
			<stop  offset="0.9985" style="stop-color:#58467F"/>
		</linearGradient>
		<path class="st58" d="M1279.4,691.2c0,0,4,0,4.7-7.2c0.7-7.2,11.2,6.5,11.2,6.5l-7.6,9.8l-10.5-2.2l-2.5-4.3L1279.4,691.2z"/>
	</g>
	<g>
		<defs>
			<path id="XMLID_10_" d="M1235.8,692.5l1.1,5.5c0,0-7.7,1.4-8.8,1.7c-1.1,0.3-0.6,1.4,3.6,1.4c4.1,0,9.7,0.3,9.7-0.8
				s-1.4-2.8-1.4-2.8l-0.3-6.9L1235.8,692.5z"/>
		</defs>
		<linearGradient id="XMLID_7_" gradientUnits="userSpaceOnUse" x1="1227.5557" y1="695.7911" x2="1241.3149" y2="695.7911">
			<stop  offset="1.915560e-03" style="stop-color:#E5B5BB"/>
			<stop  offset="1" style="stop-color:#EBD1BD"/>
		</linearGradient>
		<use xlink:href="#XMLID_10_"  style="overflow:visible;fill:url(#XMLID_7_);"/>
		<clipPath id="XMLID_17_">
			<use xlink:href="#XMLID_10_"  style="overflow:visible;"/>
		</clipPath>
		<linearGradient id="SVGID_34_" gradientUnits="userSpaceOnUse" x1="1222.135" y1="699.9801" x2="1245.6866" y2="699.9801">
			<stop  offset="0" style="stop-color:#3D365F"/>
			<stop  offset="0.9985" style="stop-color:#58467F"/>
		</linearGradient>
		<path class="st59" d="M1235.4,698.3c0,0,5.2-0.5,6-2c0.7-1.4,4.3,3.6,4.3,3.6l-6.5,4l-15.2-0.7l-1.8-5.8L1235.4,698.3"/>
		<linearGradient id="SVGID_35_" gradientUnits="userSpaceOnUse" x1="1275.3979" y1="691.8303" x2="1292.4277" y2="691.8303">
			<stop  offset="0" style="stop-color:#3D365F"/>
			<stop  offset="0.9985" style="stop-color:#58467F"/>
		</linearGradient>
		<path class="st60" d="M1279.4,691.2c0,0,3.6-1.8,5.1-6.2c1.4-4.3,8,3.3,8,3.3l-2.9,9.1l-7.6,2.5l-6.5-4.3L1279.4,691.2z"/>
	</g>
	<g>
		<defs>
			<path id="XMLID_9_" d="M1235.4,574.6l-7.2-4.9c0,0-9,6-6.6,10c1.1,1.8,3.1,2.1,5.1,2c2.3,3.1,0.4,4.9-1,6c0,0,9.8,13.4,9.8-2.9
				c0,0-2.9-1.1-3-5.4L1235.4,574.6z"/>
		</defs>
		
			<linearGradient id="XMLID_18_" gradientUnits="userSpaceOnUse" x1="1216.6969" y1="611.2394" x2="1231.0189" y2="611.2394" gradientTransform="matrix(0.9998 -2.160000e-02 2.160000e-02 0.9998 -8.3953 -3.4183)">
			<stop  offset="1.915560e-03" style="stop-color:#E5B5BB"/>
			<stop  offset="1" style="stop-color:#EBD1BD"/>
		</linearGradient>
		<use xlink:href="#XMLID_9_"  style="overflow:visible;fill:url(#XMLID_18_);"/>
		<clipPath id="XMLID_19_">
			<use xlink:href="#XMLID_9_"  style="overflow:visible;"/>
		</clipPath>
		<linearGradient id="SVGID_36_" gradientUnits="userSpaceOnUse" x1="1228.1754" y1="589.0304" x2="1238.8064" y2="589.0304">
			<stop  offset="1.915560e-03" style="stop-color:#E5B5BB"/>
			<stop  offset="1" style="stop-color:#EBD1BD"/>
		</linearGradient>
		<path class="st61" d="M1228.3,579.6c0,0-1.3,9.8,4.8,17c6.1,7.3,5.7-10.1,5.7-10.1L1228.3,579.6"/>
	</g>
	<g>
		<defs>
			<path id="XMLID_8_" d="M1235.5,619.9c0,0,7.4,0.2,16.3-4.8c0,0,8.6,4.1,9.7,13.5c1.1,9.4,3,16,6.6,18c3.6,1.9,4.4,11.1,5.5,14.1
				c1.1,3,7.7,7.7,6.9,12.7c-0.8,5,3,6.9,3,6.9l-6.1,4.4c0,0-6.4-5.8-7.2-8.3c-0.8-2.5-12.4-18.2-14.4-21.8
				c-1.9-3.6-8.8-14.5-8.8-14.5s-2.8,12.5-5.8,14.7s-3.6,7.5-5,8.3c-1.4,0.8,3,4.7,1.9,8c-1.1,3.3,5,13.3,4.4,15.2s1.7,3.9,1.1,4.7
				s-8.3,2.8-8.3,2.8s-12.4-28.2-11.6-34C1224.7,654.1,1231.9,629.3,1235.5,619.9z"/>
		</defs>
		<linearGradient id="XMLID_20_" gradientUnits="userSpaceOnUse" x1="1223.8676" y1="654.4669" x2="1283.5908" y2="654.4669">
			<stop  offset="0" style="stop-color:#FF697D"/>
			<stop  offset="1" style="stop-color:#DE2276"/>
		</linearGradient>
		<use xlink:href="#XMLID_8_"  style="overflow:visible;fill:url(#XMLID_20_);"/>
		<clipPath id="XMLID_21_">
			<use xlink:href="#XMLID_8_"  style="overflow:visible;"/>
		</clipPath>
		<linearGradient id="SVGID_37_" gradientUnits="userSpaceOnUse" x1="1247.136" y1="648.4785" x2="1262.3275" y2="648.4785">
			<stop  offset="0" style="stop-color:#FF697D"/>
			<stop  offset="1" style="stop-color:#DE2276"/>
		</linearGradient>
		<path class="st62" d="M1247.5,646.3l-0.4-6.2c0,0,1.8-4,2.2-6.9s2.5-4,2.5-4s-0.4,10.1,1.8,13c2.2,2.9,6.2,7.6,5.1,10.1
			c-1.1,2.5,5.1,11.2,3.3,14.9C1260.2,670.9,1247.5,646.3,1247.5,646.3z"/>
		<linearGradient id="SVGID_38_" gradientUnits="userSpaceOnUse" x1="1234.4543" y1="618.439" x2="1254.7949" y2="618.439">
			<stop  offset="0" style="stop-color:#FF697D"/>
			<stop  offset="1" style="stop-color:#DE2276"/>
		</linearGradient>
		<path class="st63" d="M1234.5,619.1c0,0,3.6,5.8,8.7,2.9c5.1-2.9,10.5-8.3,11.6-8c1.1,0.4-15.9,2.5-15.9,2.5L1234.5,619.1z"/>
		<linearGradient id="SVGID_39_" gradientUnits="userSpaceOnUse" x1="1234.2218" y1="671.11" x2="1250.0347" y2="671.11">
			<stop  offset="0" style="stop-color:#FF697D"/>
			<stop  offset="1" style="stop-color:#DE2276"/>
		</linearGradient>
		<path class="st64" d="M1244.8,648.5c-0.2,0.4-2,5.5-5.3,6.5c-3.3,1.1-6.2,6.5-5.1,8.7c1.1,2.2-1.1,8,1.8,10.1s5.8,14.1,5.1,15.9
			c-0.7,1.8-3.6,4-3.6,4l12.3-2.2L1244.8,648.5"/>
		<linearGradient id="SVGID_40_" gradientUnits="userSpaceOnUse" x1="1271.1279" y1="667.5663" x2="1286.6304" y2="667.5663">
			<stop  offset="0" style="stop-color:#FF697D"/>
			<stop  offset="1" style="stop-color:#DE2276"/>
		</linearGradient>
		<path class="st65" d="M1272.9,652.5l-1.1-1.1c0,0-2.2,9.4,1.4,12.3c3.6,2.9,6.2,4.3,5.8,6.9c-0.4,2.5,1.4,7.6,1.1,10.1
			c-0.4,2.5,1.8,3,1.8,3l4.7-5.9l-4.7-9.8l-4.7-11.6L1272.9,652.5z"/>
	</g>
	<g>
		<defs>
			<path id="XMLID_4_" d="M1223.9,587.7c0,0,3.9,3,5,10.5c1.1,7.5-5.1,4.5-6.7-1.6c0,0-0.7,9.5,5.1,13.4c5.8,3.9,3.1,5.6,6.2,7.2
				c3,1.7,2.1,2.5,2.1,2.5s5.5,2.8,9.9,0c4.4-2.8,6.4-4.7,6.4-4.7s1.1-5.2-0.8-8.3s-5-14.9-5-14.9s-6.4-2.2-7.7-7.2h-2.8
				c0,0,3.9,14.6-9.1,2.5C1226.4,587.2,1225.3,586.9,1223.9,587.7z"/>
		</defs>
		<linearGradient id="XMLID_22_" gradientUnits="userSpaceOnUse" x1="1222.1056" y1="602.8577" x2="1252.1293" y2="602.8577">
			<stop  offset="6.798380e-03" style="stop-color:#67A1C2"/>
			<stop  offset="0.9951" style="stop-color:#3E5B97"/>
		</linearGradient>
		<use xlink:href="#XMLID_4_"  style="overflow:visible;fill:url(#XMLID_22_);"/>
		<clipPath id="XMLID_23_">
			<use xlink:href="#XMLID_4_"  style="overflow:visible;"/>
		</clipPath>
		<linearGradient id="SVGID_41_" gradientUnits="userSpaceOnUse" x1="1228.7632" y1="597.4596" x2="1256.6233" y2="597.4596">
			<stop  offset="6.798380e-03" style="stop-color:#67A1C2"/>
			<stop  offset="0.9951" style="stop-color:#3E5B97"/>
		</linearGradient>
		<path class="st66" d="M1228.8,587.6c-0.5,1.4,11.1,26.8,24.9,17.8C1267.4,596.3,1228.8,587.6,1228.8,587.6z"/>
		<linearGradient id="SVGID_42_" gradientUnits="userSpaceOnUse" x1="1217.8689" y1="606.7211" x2="1240.8988" y2="606.7211">
			<stop  offset="6.798380e-03" style="stop-color:#67A1C2"/>
			<stop  offset="0.9951" style="stop-color:#3E5B97"/>
		</linearGradient>
		<path class="st67" d="M1223.9,598.8c-0.7,0.7-1.1,6.5,3.6,9.1c4.7,2.5,0.7,6.9,5.1,7.2s-0.4,2.5,4.3,2.5c4.7,0,6.9,3.3-3.6,1.4
			c-10.5-1.8-17.8-20.3-14.9-21.7c2.9-1.4,4.7-3.6,4.7-3.6L1223.9,598.8z"/>
	</g>
	
		<linearGradient id="SVGID_43_" gradientUnits="userSpaceOnUse" x1="-277.0516" y1="214.0235" x2="-239.805" y2="214.0235" gradientTransform="matrix(0.9236 0.3834 -0.3834 0.9236 1560.0896 486.8634)">
		<stop  offset="0" style="stop-color:#3D365F"/>
		<stop  offset="0.9985" style="stop-color:#58467F"/>
	</linearGradient>
	<path class="st68" d="M1226.5,570.9c0,0-1.1-4.4,2.2-5.2s5.5,6.3,5.5,6.3s4.3-1.5,4.9,4.2c0.6,5.7,0.5,15.1,9.2,12.8
		c8.7-2.3,9.2,19.3-5.1,13.8c-14.3-5.5-15.1-23.1-15.1-23.1s1.4,1,2.4-1.2c0.9-2.2-1.5-1.7-1.5-1.7s-2-4-0.2-6.6
		C1228.7,570.2,1227.6,570.2,1226.5,570.9z"/>
	<linearGradient id="SVGID_44_" gradientUnits="userSpaceOnUse" x1="1202.2982" y1="559.8486" x2="1206.9424" y2="559.8486">
		<stop  offset="1.915560e-03" style="stop-color:#E5B5BB"/>
		<stop  offset="1" style="stop-color:#EBD1BD"/>
	</linearGradient>
	<path class="st69" d="M1204,563.3c0,0-2.5-4-1.4-4.7c1.1-0.7,4.7-3.3,4.3-1.8c-0.4,1.4-1.1,5.8-1.1,5.8L1204,563.3z"/>
	<linearGradient id="SVGID_45_" gradientUnits="userSpaceOnUse" x1="1214.3782" y1="557.6085" x2="1219.4801" y2="557.6085">
		<stop  offset="1.915560e-03" style="stop-color:#E5B5BB"/>
		<stop  offset="1" style="stop-color:#EBD1BD"/>
	</linearGradient>
	<path class="st70" d="M1214.5,559c0,0,0.7-0.4,1.4,0c0.3,0.2,0.7-0.4,1.1-0.7s0-1.1,0-1.4s1.4-2.2,2.2-1.4c0.7,0.7-0.4,2.9-0.7,3.6
		c-0.4,0.7-0.7,0.7-0.7,0.7s-0.4,0.7-1.8,0C1216,559.7,1213.8,559.7,1214.5,559z"/>
	<rect x="1165" y="390.3" class="st41" width="37.9" height="37.9"/>
	<linearGradient id="SVGID_46_" gradientUnits="userSpaceOnUse" x1="1177.7745" y1="376.067" x2="1190.2307" y2="397.6418">
		<stop  offset="0" style="stop-color:#3478FF"/>
		<stop  offset="1" style="stop-color:#482EBD"/>
	</linearGradient>
	<rect x="1165" y="383.4" class="st71" width="37.9" height="6.9"/>
	<path class="st45" d="M1170.5,394.8h7.2c0.5,0,0.9,0.4,0.9,0.9v7.2c0,0.5-0.4,0.9-0.9,0.9h-7.2c-0.5,0-0.9-0.4-0.9-0.9v-7.2
		C1169.6,395.2,1170,394.8,1170.5,394.8z"/>
	<g>
		<path class="st45" d="M1187.6,404h-7.2c-0.6,0-1-0.5-1-1v-7.2c0-0.6,0.5-1,1-1h7.2c0.6,0,1,0.5,1,1v7.2
			C1188.6,403.5,1188.2,404,1187.6,404z M1180.4,394.9c-0.4,0-0.8,0.4-0.8,0.8v7.2c0,0.4,0.4,0.8,0.8,0.8h7.2c0.4,0,0.8-0.4,0.8-0.8
			v-7.2c0-0.4-0.4-0.8-0.8-0.8H1180.4z"/>
	</g>
	<path class="st45" d="M1190.3,394.8h7.2c0.5,0,0.9,0.4,0.9,0.9v7.2c0,0.5-0.4,0.9-0.9,0.9h-7.2c-0.5,0-0.9-0.4-0.9-0.9v-7.2
		C1189.4,395.2,1189.8,394.8,1190.3,394.8z"/>
	<g>
		<path class="st45" d="M1177.7,413.9h-7.2c-0.6,0-1-0.5-1-1v-7.2c0-0.6,0.5-1,1-1h7.2c0.6,0,1,0.5,1,1v7.2
			C1178.7,413.4,1178.3,413.9,1177.7,413.9z M1170.5,404.9c-0.4,0-0.8,0.4-0.8,0.8v7.2c0,0.4,0.4,0.8,0.8,0.8h7.2
			c0.4,0,0.8-0.4,0.8-0.8v-7.2c0-0.4-0.4-0.8-0.8-0.8H1170.5z"/>
	</g>
	<path class="st45" d="M1180.4,404.7h7.2c0.5,0,0.9,0.4,0.9,0.9v7.2c0,0.5-0.4,0.9-0.9,0.9h-7.2c-0.5,0-0.9-0.4-0.9-0.9v-7.2
		C1179.5,405.1,1179.9,404.7,1180.4,404.7z"/>
	<g>
		<path class="st45" d="M1197.5,413.9h-7.2c-0.6,0-1-0.5-1-1v-7.2c0-0.6,0.5-1,1-1h7.2c0.6,0,1,0.5,1,1v7.2
			C1198.6,413.4,1198.1,413.9,1197.5,413.9z M1190.3,404.9c-0.4,0-0.8,0.4-0.8,0.8v7.2c0,0.4,0.4,0.8,0.8,0.8h7.2
			c0.4,0,0.8-0.4,0.8-0.8v-7.2c0-0.4-0.4-0.8-0.8-0.8H1190.3z"/>
	</g>
	<path class="st45" d="M1177.7,415.4c0.1,0,0.2,0.1,0.2,0.2v7.2c0,0.1-0.1,0.2-0.2,0.2h-7.2c-0.1,0-0.2-0.1-0.2-0.2v-7.2
		c0-0.1,0.1-0.2,0.2-0.2H1177.7 M1177.7,414.7h-7.2c-0.5,0-0.9,0.4-0.9,0.9v7.2c0,0.5,0.4,0.9,0.9,0.9h7.2c0.5,0,0.9-0.4,0.9-0.9
		v-7.2C1178.6,415.1,1178.2,414.7,1177.7,414.7L1177.7,414.7z"/>
	<g>
		<path class="st45" d="M1187.6,423.8h-7.2c-0.6,0-1-0.5-1-1v-7.2c0-0.6,0.5-1,1-1h7.2c0.6,0,1,0.5,1,1v7.2
			C1188.6,423.4,1188.2,423.8,1187.6,423.8z M1180.4,414.8c-0.4,0-0.8,0.4-0.8,0.8v7.2c0,0.4,0.4,0.8,0.8,0.8h7.2
			c0.4,0,0.8-0.4,0.8-0.8v-7.2c0-0.4-0.4-0.8-0.8-0.8H1180.4z"/>
	</g>
	<path class="st45" d="M1190.3,414.7h7.2c0.5,0,0.9,0.4,0.9,0.9v7.2c0,0.5-0.4,0.9-0.9,0.9h-7.2c-0.5,0-0.9-0.4-0.9-0.9v-7.2
		C1189.4,415.1,1189.8,414.7,1190.3,414.7z"/>
	<g>
		<g>
			<circle class="st72" cx="1198.6" cy="386.9" r="1.6"/>
			<linearGradient id="SVGID_47_" gradientUnits="userSpaceOnUse" x1="1197.8203" y1="384.0969" x2="1199.4315" y2="384.0969">
				<stop  offset="0" style="stop-color:#FF697D"/>
				<stop  offset="1" style="stop-color:#DE2276"/>
			</linearGradient>
			<path class="st73" d="M1198.6,380.5c-0.4,0-0.8,0.4-0.8,0.8v5.5c0,0.4,0.4,0.8,0.8,0.8c0.4,0,0.8-0.4,0.8-0.8v-5.5
				C1199.4,380.9,1199.1,380.5,1198.6,380.5z"/>
		</g>
	</g>
	<g>
		<g>
			<circle class="st72" cx="1169.4" cy="386.9" r="1.6"/>
			<linearGradient id="SVGID_48_" gradientUnits="userSpaceOnUse" x1="1168.5739" y1="384.0969" x2="1170.1849" y2="384.0969">
				<stop  offset="0" style="stop-color:#FF697D"/>
				<stop  offset="1" style="stop-color:#DE2276"/>
			</linearGradient>
			<path class="st74" d="M1169.4,380.5c-0.4,0-0.8,0.4-0.8,0.8v5.5c0,0.4,0.4,0.8,0.8,0.8s0.8-0.4,0.8-0.8v-5.5
				C1170.2,380.9,1169.8,380.5,1169.4,380.5z"/>
		</g>
	</g>
	<g>
		<g>
			<circle class="st72" cx="1176.7" cy="386.9" r="1.6"/>
			<linearGradient id="SVGID_49_" gradientUnits="userSpaceOnUse" x1="1175.8855" y1="384.0969" x2="1177.4966" y2="384.0969">
				<stop  offset="0" style="stop-color:#FF697D"/>
				<stop  offset="1" style="stop-color:#DE2276"/>
			</linearGradient>
			<path class="st75" d="M1176.7,380.5c-0.4,0-0.8,0.4-0.8,0.8v5.5c0,0.4,0.4,0.8,0.8,0.8c0.4,0,0.8-0.4,0.8-0.8v-5.5
				C1177.5,380.9,1177.1,380.5,1176.7,380.5z"/>
		</g>
	</g>
	<g>
		<g>
			<circle class="st72" cx="1184" cy="386.9" r="1.6"/>
			<linearGradient id="SVGID_50_" gradientUnits="userSpaceOnUse" x1="1183.197" y1="384.0969" x2="1184.8082" y2="384.0969">
				<stop  offset="0" style="stop-color:#FF697D"/>
				<stop  offset="1" style="stop-color:#DE2276"/>
			</linearGradient>
			<path class="st76" d="M1184,380.5c-0.4,0-0.8,0.4-0.8,0.8v5.5c0,0.4,0.4,0.8,0.8,0.8c0.4,0,0.8-0.4,0.8-0.8v-5.5
				C1184.8,380.9,1184.4,380.5,1184,380.5z"/>
		</g>
	</g>
	<g>
		<g>
			<circle class="st72" cx="1191.3" cy="386.9" r="1.6"/>
			<linearGradient id="SVGID_51_" gradientUnits="userSpaceOnUse" x1="1190.5087" y1="384.0969" x2="1192.1199" y2="384.0969">
				<stop  offset="0" style="stop-color:#FF697D"/>
				<stop  offset="1" style="stop-color:#DE2276"/>
			</linearGradient>
			<path class="st77" d="M1191.3,380.5c-0.4,0-0.8,0.4-0.8,0.8v5.5c0,0.4,0.4,0.8,0.8,0.8c0.4,0,0.8-0.4,0.8-0.8v-5.5
				C1192.1,380.9,1191.8,380.5,1191.3,380.5z"/>
		</g>
	</g>
	<linearGradient id="SVGID_52_" gradientUnits="userSpaceOnUse" x1="1191.1422" y1="409.3923" x2="1197.3257" y2="409.3923">
		<stop  offset="0" style="stop-color:#FF697D"/>
		<stop  offset="1" style="stop-color:#DE2276"/>
	</linearGradient>
	<path class="st78" d="M1197.2,407.5l-0.5-0.5c-0.1-0.1-0.3-0.1-0.4,0l-3.1,3.1l-1-1c-0.1-0.1-0.1-0.1-0.2-0.1c-0.1,0-0.2,0-0.2,0.1
		l-0.5,0.5c-0.1,0.1-0.1,0.3,0,0.4l1.7,1.8c0.1,0.1,0.1,0.1,0.2,0.1c0.1,0,0.2,0,0.2-0.1l3.8-3.8c0.1-0.1,0.1-0.1,0.1-0.2
		C1197.3,407.6,1197.3,407.6,1197.2,407.5z"/>
	<path class="st79" d="M1218.4,355.4h-28.2c0,0,0-0.6,0.4-1.5c1-0.3,2.3-0.3,3.3,0c1,0.3,1.7,0.5,1.7,0.5s14.8,0,18.3,0
		C1217.6,354.3,1218.4,355.4,1218.4,355.4z"/>
	<path class="st80" d="M1215.3,336.3c0,0,0.4-2,0.1-3.2c-0.2-1.2-1.4-2.9-1.5-2.9c-0.1,0-1.6,0.3-1.6,0.4c0,0.1,0,2.2,0,2.2
		s0.5,3.1,0.7,3.4c0.2,0.3,0.8,1.6,0.9,1.6c0.1,0,0.7-0.2,0.7-0.2L1215.3,336.3z"/>
	<path class="st81" d="M1212.6,339.3c-0.1,0.2-2.3,3.5-4.2,4.8c-0.3-0.7-0.7-1.5-0.9-2.1l2.5-1.8L1212.6,339.3z"/>
	<linearGradient id="SVGID_53_" gradientUnits="userSpaceOnUse" x1="1194.6313" y1="355.0613" x2="1196.783" y2="355.0613">
		<stop  offset="0" style="stop-color:#F7941E"/>
		<stop  offset="1" style="stop-color:#F7941E;stop-opacity:0"/>
	</linearGradient>
	<path class="st82" d="M1196.5,355.4c-0.1,0-0.4,0.1-0.7,0.1c0,0-0.8-0.8-1.2-1c0.4,0.1,1,0.2,1.5,0.2
		C1197.1,354.7,1196.8,355.3,1196.5,355.4z"/>
	<path class="st80" d="M1211.4,347.4c-1.1,0.1-2.2-0.7-2.4-1.8c-0.1-0.4-0.3-0.9-0.6-1.5c-0.3-0.7-0.7-1.5-0.9-2.1l2.5-1.8l5.3-3.9
		c0,0,0.7,4.9,1.9,6.9C1217.2,343.2,1217.6,347,1211.4,347.4z"/>
	<path class="st80" d="M1214.3,334c0.1,1.1,0.1,2.2,0.1,2.9c0,0.1,0,0.2-0.1,0.3c0,0.1,0,0.2-0.1,0.3c-0.8,3.3-11.1,7.1-11.4,6.9
		c-5.7-3.7-7.7-17.3-7.1-18.2c0.7-1,8.7-1.9,8.9-1.9c0.2,0,7.9,0.5,7.9,0.5S1213.9,330.1,1214.3,334z"/>
	<path class="st83" d="M1192.1,323.1c0,0,0.3,5.9,10,3.6c2.7-0.7,5-1.3,6.4-0.5c2,6.3,2.1,9.3,2.8,9c0.9-0.3-1.5-5.5,1.5-5
		c2.3,0.4,2.5,6.1,2.5,6.1s0.2,0.5,0.3-0.9c0-0.8,0.6-13.5-1.3-16.2c-1.9-2.7-4.7-1.1-4.7-1.1s0.2-6.4-9.1-1.7
		c-5.3,2.7-7.9,0.9-7.9,1C1192.6,317.7,1191.6,319.4,1192.1,323.1z"/>
	<path class="st80" d="M1205.2,398c0,0-0.6,0.7-1.2,1.2c-0.6,0.4-0.8,0.4-1.6,0.6c-0.8,0.2-1.5,1-1.7,1.3c-0.2,0.3,0,0.4,0.5,0.3
		c0.5-0.1,1.1-0.5,1.3-0.5c0.2,0,0.2,0.2,0,0.7c-0.2,0.4-0.8,1.2-1.1,1.4c-0.3,0.3-1.2,0.8-1.3,1.1c-0.1,0.3,0,0.5,0.5,0.3
		c0.5-0.2,1-0.6,1.6-0.9c0.3-0.2,0.5-0.3,0.6-0.5c0.2,0,0.9,0.2,1.3,0.1c0.2,0,0.5-0.2,0.6-0.3c0.1,0,0.1,0,0.2,0
		c0.4-0.2,0.7-1.7,0.9-2.1c0.2-0.4,2.2-1.9,2.2-1.9L1205.2,398z"/>
	<path class="st80" d="M1225.6,383.6c0,0-6.2-0.9-6.7-2.1c-0.3-0.7-0.2-6.4-0.1-10.9c0-1,0-1.9,0.1-2.7c0-1.7,0.1-2.9,0.1-2.9
		l11.7,1.1C1229.5,371.2,1225.6,383.6,1225.6,383.6z"/>
	<path class="st80" d="M1218.8,381.5c0,0-3.1,2.4-4.7,4.3c-1,1.2-4.2,6.1-6.7,9.5c-1.5,2-2.9,3.4-2.9,3.4l1.5,1.5
		c0,0,6.4-4.2,11.7-8.2c5.3-4,6.9-5.4,7.8-8.5C1226.5,380.6,1220.7,380,1218.8,381.5z"/>
	<path class="st84" d="M1232.3,353.3c-0.1-1.1-0.4-2-0.7-2.9c0,0,0,0,0-0.1l0,0c-0.4-1-1-2-1.7-2.8c-3.2-2.3-12.6-4.5-12.6-4.5
		l-7.4,0.5c-6.6,1.1-8.8,1.4-13.2,2.7c-2.3,2.3-3.5,4-5.9,7.6c-0.4,0.9-0.4,1.5-0.4,1.5h2.4l5,2.2c6.9,6.6,20.2,25.5,19.1,25.7
		l2.2-1.8c1.3-5.5-0.1-15.5-0.1-15.5s6.3,2.2,12,0.9C1230.7,366.9,1233.5,360.4,1232.3,353.3z"/>
	<path class="st80" d="M1193.7,358.3c-0.2,0-0.6-0.3-1-0.7c-0.1-0.1-0.3-0.4-0.5-0.6c-0.2-0.1-0.4-0.3-0.5-0.4
		c-0.3-0.2-0.7-0.3-0.8-0.3c0,0,0,0,0,0v0c-2,0-2.9-0.9-5.3-0.9c0,0,5.7-2.7,9.2-0.8c0.4,0.1,1,0.2,1.5,0.2c1,0,0.7,0.5,0.4,0.7
		c-0.1,0-0.4,0.1-0.7,0.1c0,0,0,0,0.1,0.1c0.2,0.2,0.3,0.3,0.4,0.5c0.4,0.5,1,1.2,1.1,1.3c0.2,0.2,0.1,0.3,0.1,0.3
		C1197.7,358,1195.5,359.2,1193.7,358.3z"/>
	<g>
		<linearGradient id="SVGID_54_" gradientUnits="userSpaceOnUse" x1="942.4108" y1="772.4424" x2="942.4108" y2="857.5281">
			<stop  offset="0" style="stop-color:#3478FF"/>
			<stop  offset="1" style="stop-color:#482EBD"/>
		</linearGradient>
		<path class="st85" d="M985,815c0,4-0.6,7.9-1.6,11.6c-0.6,2.1-1.4,4.1-2.3,6.1c-6.7,14.6-21.5,24.8-38.7,24.8
			c-23.5,0-42.5-19.1-42.5-42.5s19.1-42.5,42.5-42.5C965.9,772.4,985,791.5,985,815z"/>
		
			<ellipse transform="matrix(0.2435 -0.9699 0.9699 0.2435 -77.5126 1530.5929)" class="st86" cx="942.4" cy="815" rx="38.6" ry="38.6"/>
		<circle class="st41" cx="942.4" cy="815" r="37"/>
		<path class="st72" d="M944.9,815c0,1.3-1.1,2.4-2.4,2.4s-2.4-1.1-2.4-2.4c0-1.3,1.1-2.4,2.4-2.4S944.9,813.6,944.9,815z"/>
		<g>
			<path class="st72" d="M942.8,816.1c-0.6,0-1.1-0.5-1.1-1.1v-26.3c0-0.6,0.5-1.1,1.1-1.1c0.6,0,1.1,0.5,1.1,1.1V815
				C943.9,815.6,943.4,816.1,942.8,816.1z"/>
		</g>
		<g>
			<path class="st72" d="M942.8,816.1h-20.3c-0.6,0-1.1-0.5-1.1-1.1c0-0.6,0.5-1.1,1.1-1.1h20.3c0.6,0,1.1,0.5,1.1,1.1
				C943.9,815.6,943.4,816.1,942.8,816.1z"/>
		</g>
		<g>
			<g>
				<path class="st87" d="M942.8,783.8c-0.2,0-0.4-0.2-0.4-0.4v-2.9c0-0.2,0.2-0.4,0.4-0.4c0.2,0,0.4,0.2,0.4,0.4v2.9
					C943.3,783.6,943.1,783.8,942.8,783.8z"/>
			</g>
			<g>
				<path class="st87" d="M927,787.8c-0.2,0-0.3-0.1-0.4-0.2l-1.5-2.5c-0.1-0.2-0.1-0.5,0.2-0.6c0.2-0.1,0.5-0.1,0.6,0.2l1.5,2.5
					c0.1,0.2,0.1,0.5-0.2,0.6C927.1,787.8,927,787.8,927,787.8z"/>
			</g>
			<g>
				<path class="st87" d="M915.2,799.3c-0.1,0-0.2,0-0.2-0.1l-2.5-1.5c-0.2-0.1-0.3-0.4-0.2-0.6s0.4-0.3,0.6-0.2l2.5,1.5
					c0.2,0.1,0.3,0.4,0.2,0.6C915.5,799.2,915.4,799.3,915.2,799.3z"/>
			</g>
			<g>
				<path class="st87" d="M910.8,815h-2.9c-0.2,0-0.4-0.2-0.4-0.4c0-0.2,0.2-0.4,0.4-0.4h2.9c0.2,0,0.4,0.2,0.4,0.4
					C911.2,814.8,911,815,910.8,815z"/>
			</g>
			<g>
				<path class="st87" d="M912.3,832.3c-0.2,0-0.3-0.1-0.4-0.2c-0.1-0.2-0.1-0.5,0.2-0.6l2.5-1.5c0.2-0.1,0.5-0.1,0.6,0.2
					c0.1,0.2,0.1,0.5-0.2,0.6l-2.5,1.5C912.4,832.3,912.4,832.3,912.3,832.3z"/>
			</g>
			<g>
				<path class="st87" d="M924.8,845.1c-0.1,0-0.2,0-0.2-0.1c-0.2-0.1-0.3-0.4-0.2-0.6l1.5-2.5c0.1-0.2,0.4-0.3,0.6-0.2
					s0.3,0.4,0.2,0.6l-1.5,2.5C925.1,845.1,924.9,845.1,924.8,845.1z"/>
			</g>
			<g>
				<path class="st87" d="M942,850c-0.2,0-0.4-0.2-0.4-0.4v-2.9c0-0.2,0.2-0.4,0.4-0.4c0.2,0,0.4,0.2,0.4,0.4v2.9
					C942.4,849.8,942.2,850,942,850z"/>
			</g>
			<g>
				<path class="st87" d="M959.3,845.6c-0.2,0-0.3-0.1-0.4-0.2l-1.5-2.5c-0.1-0.2-0.1-0.5,0.2-0.6c0.2-0.1,0.5-0.1,0.6,0.2l1.5,2.5
					c0.1,0.2,0.1,0.5-0.2,0.6C959.5,845.5,959.4,845.6,959.3,845.6z"/>
			</g>
			<g>
				<path class="st87" d="M972.1,833.1c-0.1,0-0.2,0-0.2-0.1l-2.5-1.5c-0.2-0.1-0.3-0.4-0.2-0.6c0.1-0.2,0.4-0.3,0.6-0.2l2.5,1.5
					c0.2,0.1,0.3,0.4,0.2,0.6C972.4,833,972.3,833.1,972.1,833.1z"/>
			</g>
			<g>
				<path class="st87" d="M977,815.8H974c-0.2,0-0.4-0.2-0.4-0.4c0-0.2,0.2-0.4,0.4-0.4h2.9c0.2,0,0.4,0.2,0.4,0.4
					C977.4,815.6,977.2,815.8,977,815.8z"/>
			</g>
			<g>
				<path class="st87" d="M970,800c-0.2,0-0.3-0.1-0.4-0.2c-0.1-0.2-0.1-0.5,0.2-0.6l2.5-1.5c0.2-0.1,0.5-0.1,0.6,0.2
					c0.1,0.2,0.1,0.5-0.2,0.6l-2.5,1.5C970.2,800,970.1,800,970,800z"/>
			</g>
			<g>
				<path class="st87" d="M958.6,788.2c-0.1,0-0.2,0-0.2-0.1c-0.2-0.1-0.3-0.4-0.2-0.6l1.5-2.5c0.1-0.2,0.4-0.3,0.6-0.2
					c0.2,0.1,0.3,0.4,0.2,0.6L959,788C958.9,788.2,958.7,788.2,958.6,788.2z"/>
			</g>
		</g>
	</g>
	<g>
		<g>
			<path class="st88" d="M1402.2,818.8c0.4,1.7,0.6,3,0.6,3.7h-18c0,0-0.3-3.8-0.1-7.6c0-0.1,0-0.2,0-0.3c0.1-1.1,0.2-2.1,0.3-3.1
				c0.5-3.3,1.5-8.5,2-11.7c0-0.1,0-0.2,0-0.3c0.2-1,0.3-1.8,0.3-2.3c0-1.1-1.4-3-2.6-4.5c-0.1-0.1-0.2-0.2-0.3-0.3v0
				c-0.7-0.9-1.3-1.7-1.4-2c-0.1-0.5,0.1-15.5,0.3-25.1c0-0.1,0-0.2,0-0.3c0.1-4.5,0.2-7.7,0.2-7.7s-2.9-3.6-2.9-4.1
				c0-0.5,2.6-14,2.6-14l-2.6-2.2l1.7-11.3h14.9l1.2,15.9c-1.1,0.5-1.6,0.8-1.6,1.1c0,0.3,0.5,1.1,0.8,1.5c-0.3,0.1-0.9,0.2-1.1,0.3
				c0,0,0,0,0,0c0,0,0,0,0,0c0,0,0,0,0,0c0,0,0,0,0,0c0,0,0,0-0.1,0.1c-0.1,0.1-0.1,0.1-0.2,0.2c0,0.1-0.1,0.1-0.1,0.2
				c0,0,0,0.1-0.1,0.1c0,0,0,0.1,0,0.1c0,0,0,0.1,0,0.1c0,0,0,0.1,0,0.1c0,0,0,0,0,0.1c0,0,0,0.1,0,0.1c0,0,0,0.1,0,0.1
				c0,0.1,0,0.1,0,0.2c0.1,0.6,0.8,4,1,4.4c0.1,0.3,0.5,0.4,0.9,0.6c0.4,0.1,0.8,0.3,1,0.5c0.2,0.4,0.4,3.6,0.5,5.1
				c0,0.5,0,1,0.1,1.2c0,0.6,0.5,1.6,1,3c0.2,0.5,0.4,0.9,0.6,1.4c0.1,0.2,0.1,0.3,0.2,0.5c0.1,0.3,0.2,0.5,0.3,0.8
				c0.1,0.3,0.2,0.5,0.3,0.8c0,0.1,0.1,0.3,0.1,0.4c0.2,0.8,0.5,1.6,0.7,2.3c0,0.1,0.1,0.3,0.1,0.4c0.1,0.3,0.2,0.6,0.2,0.9
				c0,0.1,0,0.1,0.1,0.2c0.1,0.5,0.2,0.9,0.2,1c0,0.3-0.9,2.6-1.5,4.2c-0.5,1.3-1,2.5-1.1,3c-0.2,0.7-0.1,1.3,0.1,2.1
				c0.1,0.6,0.3,1.3,0.4,2.2c0,0.2,0,0.4,0.1,0.5c0,0.2,0,0.3,0,0.5c0,0.2,0,0.5,0,0.7c0,0.1,0,0.2,0,0.3c0,0.1,0,0.2,0,0.3
				c0,0.1,0,0.2,0,0.3c0,1.2,0,2.2,0,2.5c-0.2,0.1-0.6,0.3-0.9,0.6c-0.4,0.4-0.3,1.5-0.1,3.1c0.1,1.2,0.4,3.1,0.4,3.7
				c-0.2,0-0.7,0.2-1.1,0.6c-0.5,0.5-0.8,1.2-0.8,1.4c0,0-0.1,0.1-0.2,0.3c0,0,0,0-0.1,0.1c0,0,0,0-0.1,0.1
				c-0.1,0.1-0.1,0.2-0.2,0.2c0,0.1-0.1,0.1-0.1,0.2c0,0.1-0.1,0.1-0.1,0.2c-0.1,0.1-0.2,0.3-0.3,0.5c0,0.1-0.1,0.1-0.1,0.2
				c-0.1,0.1-0.1,0.2-0.1,0.4c0,0,0,0,0,0c0,0,0,0.1,0,0.1c0,0.1-0.1,0.3-0.1,0.4c-0.2,1.1,0,1.5,0.3,2c0.1,0.2,0.2,0.4,0.3,0.6
				c0,0.1,0,0.1,0.1,0.2c0,0.1,0,0.1,0.1,0.2c0,0,0,0,0,0c0,0.1,0,0.2,0.1,0.3c0,0,0,0,0,0.1c0,0.1,0,0.2,0.1,0.3c0,0,0,0.1,0,0.1
				c0,0,0,0,0,0v0c0,0.1,0,0.2,0.1,0.3c0,0.1,0,0.1,0,0.2c0,0.3,0.1,0.6,0.1,1c0.2,1.5,0.5,3.3,0.8,4.8l0.7,2.5
				c0.1,0.3,0.1,0.5,0.2,0.8c0.1,0.3,0.1,0.5,0.2,0.8c0.3,1,0.5,2,0.8,3c0,0.1,0,0.2,0.1,0.3c0.1,0.3,0.1,0.5,0.2,0.8
				c0,0.2,0.1,0.3,0.1,0.5c0.1,0.5,0.3,1,0.4,1.4c0,0.1,0.1,0.3,0.1,0.4C1402.2,818.7,1402.2,818.7,1402.2,818.8z"/>
			<path class="st89" d="M1412.9,822.6h-9.8c0-0.8-0.1-2.1-0.6-3.8c0-0.1,0-0.1-0.1-0.2c0-0.2-0.1-0.4-0.1-0.5
				c-0.1-0.3-0.1-0.5-0.2-0.8c-0.1-0.2-0.1-0.5-0.2-0.7c-0.1-0.3-0.2-0.7-0.3-1c-0.2-0.7-0.4-1.3-0.5-2c-0.1-0.4-0.2-0.8-0.3-1.3
				c-0.1-0.5-0.3-1.1-0.4-1.6l-0.7-2.5c-0.4-1.5-0.6-3.3-0.8-4.7c-0.2-1.3-0.3-2.3-0.5-2.8c-0.1-0.3-0.2-0.5-0.3-0.7
				c-0.1-0.1-0.1-0.2-0.2-0.3c0,0,0-0.1-0.1-0.1c0-0.1,0-0.1-0.1-0.2c0,0,0-0.1,0-0.1c0,0,0,0,0,0c0,0,0-0.1,0-0.1c0,0,0-0.1,0-0.1
				c0,0,0,0,0-0.1c0-0.2,0-0.5,0.1-0.8c0-0.1,0-0.2,0.1-0.2c0,0,0,0,0,0c0-0.1,0-0.2,0.1-0.2c0-0.1,0.1-0.2,0.1-0.2
				c0.1-0.2,0.2-0.5,0.3-0.7c0,0,0-0.1,0.1-0.1c0-0.1,0.1-0.1,0.1-0.2c0,0,0-0.1,0.1-0.1c0,0,0.1-0.1,0.1-0.1c0,0,0.1-0.1,0.1-0.1
				c0,0,0,0,0,0c0,0,0.1-0.1,0.1-0.1c0.1-0.1,0.1-0.1,0.1-0.2c0,0,0,0,0,0c0,0,0.1,0,0.1,0c0,0,0,0,0-0.1c0,0,0.2-0.8,0.7-1.3
				c0.5-0.5,1.1-0.5,1.1-0.5c0,0,0.1,0,0.1,0c0,0,0-0.1,0-0.1c0,0-0.3-2.4-0.5-3.8c-0.1-1.1-0.3-2.5,0-2.9c0.3-0.3,0.9-0.5,0.9-0.5
				c0.1,0,0.1-0.1,0.1-0.1c0,0,0.1-2.1,0-4.2c0-0.1,0-0.2,0-0.3c0-0.3,0-0.5-0.1-0.8c-0.1-1-0.3-1.7-0.4-2.3c-0.2-0.8-0.3-1.4-0.1-2
				c0.1-0.4,0.6-1.7,1.1-3c1-2.4,1.6-4.1,1.6-4.4c0,0,0,0,0-0.1c0,0,0-0.1,0-0.1c-0.1-0.4-0.2-1.1-0.5-2c0-0.1,0-0.1-0.1-0.2
				c-0.3-1.2-0.7-2.6-1.1-3.7c-0.2-0.6-0.4-1.1-0.6-1.7c-0.1-0.3-0.2-0.5-0.3-0.8c0-0.1-0.1-0.2-0.1-0.3c-0.5-1.3-1-2.3-1-2.9
				c0-0.2,0-0.6-0.1-1.2c-0.1-2.5-0.2-4.8-0.5-5.2c-0.2-0.3-0.7-0.5-1.1-0.6c-0.3-0.1-0.7-0.3-0.8-0.4c-0.1-0.4-0.9-3.7-1-4.4
				c-0.1-0.6,0.3-1.1,0.5-1.2c0.1-0.1,0.7-0.2,1.2-0.3c0,0,0.1,0,0.1-0.1c0,0,0,0,0,0c0,0,0-0.1,0-0.1c0-0.1-0.1-0.1-0.1-0.2
				c0,0-0.1-0.1-0.1-0.1c0-0.1-0.1-0.1-0.1-0.2c-0.1-0.2-0.3-0.4-0.4-0.6c0,0,0-0.1-0.1-0.1c0,0,0-0.1-0.1-0.1c0,0,0,0,0-0.1
				c0-0.1,0-0.1,0-0.1c0,0,0,0,0.1-0.1c0,0,0,0,0,0c0,0,0,0,0,0c0,0,0.1-0.1,0.2-0.1c0.3-0.2,0.7-0.4,1.1-0.6c0,0,0.1,0,0.1,0
				c0.1,0,0.1-0.1,0.1-0.1l0-0.1l-1.3-15.9h12.5c0,0-0.6,3.6-1.2,6c-0.4,1.7-1.1,4.5-1.5,8.1c0,0.1,0,0.2,0,0.3
				c-0.2,1.6-0.2,3.4-0.2,5.3c0.1,6.2,1.2,11.8,1.2,11.8c0.3-0.1,1.2,0.7,1.7,3.2c0.4,2.1,0.5,4.9,0.5,6.4c0,0.1,0,0.2,0,0.3
				c0,0.2,0,0.4,0,0.5c-0.1,0.9-2.8,5.2-3.3,8c-0.4,2.1,0,4.1,0.8,6.6c0,0.1,0.1,0.2,0.1,0.3c0.2,0.7,0.5,1.5,0.7,2.3
				c1.2,3.8,1.9,6.8,1.9,6.8s-2.6,2.3-3,3.6c-0.4,1.4-0.4,2.6-0.1,6.8c0.3,4.2,1.6,7.3,2.6,11.4
				C1411.1,817.6,1412.9,822.6,1412.9,822.6z"/>
			<path class="st90" d="M1400.3,810.5l-0.7-2.5c-0.4-1.5-0.6-3.3-0.8-4.7c-0.2-1.3-0.3-2.3-0.5-2.8c-0.1-0.3-0.2-0.5-0.3-0.7
				c-0.3-0.5-0.5-0.8-0.3-1.8c0.3-1.4,1.3-2.4,1.3-2.4c0,0,0,0,0-0.1c0,0,0.2-0.8,0.7-1.3c0.5-0.5,1.1-0.5,1.1-0.5c0,0,0.1,0,0.1,0
				c0,0,0-0.1,0-0.1c0,0-0.3-2.4-0.5-3.8c-0.1-1.1-0.3-2.5,0-2.9c0.3-0.3,0.9-0.5,0.9-0.5c0.1,0,0.1-0.1,0.1-0.1
				c0,0,0.2-2.8-0.1-5.3c-0.1-1-0.3-1.7-0.4-2.3c-0.2-0.8-0.3-1.4-0.1-2c0.1-0.4,0.6-1.7,1.1-3c1-2.4,1.6-4.1,1.6-4.4
				c0-0.5-0.9-3.7-1.7-6.1c-0.3-0.9-0.7-1.9-1.1-2.8c-0.5-1.3-1-2.3-1-2.9c0-0.2,0-0.6-0.1-1.2c-0.1-2.5-0.2-4.8-0.5-5.2
				c-0.2-0.3-0.7-0.5-1.1-0.6c-0.3-0.1-0.7-0.3-0.8-0.4c-0.1-0.4-0.9-3.7-1-4.4c-0.1-0.6,0.3-1.1,0.5-1.2c0.1-0.1,0.7-0.2,1.2-0.3
				c0,0,0.1,0,0.1-0.1c0,0,0-0.1,0-0.1c-0.4-0.6-0.9-1.4-0.9-1.5c0.1-0.2,0.8-0.6,1.5-0.8c0.1,0,0.1-0.1,0.1-0.1l-1.3-16h-0.3
				l1.2,15.9c-1.1,0.5-1.6,0.8-1.6,1.1c0,0.3,0.5,1.1,0.8,1.5c-0.3,0.1-0.9,0.2-1.1,0.3c-0.2,0.1-0.7,0.8-0.6,1.5
				c0.1,0.6,0.8,4,1,4.4c0.1,0.3,0.5,0.4,0.9,0.6c0.4,0.1,0.8,0.3,1,0.5c0.2,0.4,0.4,3.6,0.5,5.1c0,0.5,0,1,0.1,1.2
				c0,0.6,0.5,1.6,1,3c0.4,0.8,0.8,1.8,1.1,2.7c0.8,2.3,1.6,5.5,1.7,6c0,0.3-0.9,2.6-1.5,4.2c-0.5,1.3-1,2.5-1.1,3
				c-0.2,0.7-0.1,1.3,0.1,2.1c0.1,0.6,0.3,1.3,0.4,2.2c0.3,2.2,0.2,4.6,0.2,5.1c-0.2,0.1-0.6,0.3-0.9,0.6c-0.4,0.4-0.3,1.5-0.1,3.1
				c0.1,1.2,0.4,3.1,0.4,3.7c-0.2,0-0.7,0.2-1.1,0.6c-0.5,0.5-0.8,1.2-0.8,1.4c-0.2,0.2-1.1,1.1-1.4,2.5c-0.2,1.1,0,1.5,0.3,2
				c0.1,0.2,0.2,0.4,0.3,0.6c0.2,0.4,0.3,1.5,0.5,2.7c0.2,1.5,0.5,3.3,0.8,4.8l0.7,2.5c0.7,2.7,1.6,6.1,2.2,8.2
				c0.4,1.7,0.6,3,0.6,3.7h0.3c0-0.8-0.1-2.1-0.6-3.8C1401.9,816.6,1401,813.2,1400.3,810.5z"/>
		</g>
		<g>
			<path class="st90" d="M1397.8,731.5c-0.1,0-0.1,0-0.1-0.1c0-0.1,0-0.2,0.1-0.2c0.3-0.1,7.3-1.3,8.4-1.3c0.1,0,0.1,0.1,0.1,0.2
				c0,0.1-0.1,0.1-0.2,0.1C1405.1,730.1,1397.9,731.5,1397.8,731.5C1397.8,731.5,1397.8,731.5,1397.8,731.5z"/>
		</g>
		<g>
			<path class="st90" d="M1397.9,732.6C1397.9,732.6,1397.9,732.6,1397.9,732.6c0,0-3.4-0.4-5.1-0.4c-1.7,0-10.3-0.9-10.4-0.9
				c-0.1,0-0.1-0.1-0.1-0.2c0-0.1,0.1-0.1,0.2-0.1c0.1,0,8.7,0.9,10.4,0.9c1.7,0,5,0.4,5.1,0.4c0.1,0,0.1,0.1,0.1,0.2
				C1398.1,732.5,1398,732.6,1397.9,732.6z"/>
		</g>
		<g>
			<path class="st90" d="M1393.8,738.2C1393.8,738.2,1393.8,738.2,1393.8,738.2c-2.8-1.3-8.7-0.6-9.1-0.5c-0.1,0-0.1,0-0.2-0.1
				c0-0.1,0-0.2,0.1-0.2c0.3-0.2,6.5-0.8,9.3,0.5c0.1,0,0.1,0.1,0.1,0.2C1393.9,738.2,1393.9,738.2,1393.8,738.2z"/>
		</g>
		<g>
			<path class="st90" d="M1396.2,743.4C1396.2,743.4,1396.2,743.4,1396.2,743.4c-0.1,0-5-0.2-8.2,0c-3.5,0.2-4.1-0.4-4.2-0.5
				c0-0.1,0-0.2,0-0.2c0.1,0,0.2,0,0.2,0c0,0,0.5,0.6,4,0.4c3.2-0.2,8.1,0,8.2,0c0.1,0,0.1,0.1,0.1,0.2
				C1396.3,743.4,1396.3,743.4,1396.2,743.4z"/>
		</g>
		<g>
			<path class="st90" d="M1407.3,739.9c0,0.1,0,0.2,0,0.3c-1.2,0.4-3.8,1.1-5.4,1.6c-0.8,0.2-1.5,0.3-2,0.3c-0.6,0-1-0.1-1.2-0.1
				c0,0-0.1,0-0.1,0c0,0,0,0,0,0c-0.1,0-0.1,0-0.1-0.1c0-0.1,0-0.2,0.1-0.2c0.1,0,0.1,0,0.2,0c0,0,0,0,0.1,0c0.4,0.1,1.3,0.3,3-0.2
				C1403.4,741.1,1406.1,740.3,1407.3,739.9z"/>
		</g>
		<g>
			<path class="st90" d="M1397.9,744.4c-0.1,0-0.1,0-0.1-0.1c0-0.1,0-0.2,0.1-0.2c0,0,1.6-0.4,2.7-0.8c1.2-0.4,4.9-0.8,5.6-0.9
				c0.1,0,0.2,0,0.2,0.1c0,0.1,0,0.1-0.1,0.2c-0.7,0.1-4.4,0.5-5.5,0.9C1399.5,744,1398,744.4,1397.9,744.4
				C1397.9,744.4,1397.9,744.4,1397.9,744.4z"/>
		</g>
		<g>
			<path class="st90" d="M1396.2,745.4C1396.2,745.4,1396.2,745.4,1396.2,745.4c-0.1,0-4.9-0.8-6.7-0.8c-0.5,0-1,0-1.5,0
				c-1.8,0.1-3.8,0.1-4.5-0.3c-0.1,0-0.1-0.1,0-0.2c0-0.1,0.1-0.1,0.2,0c0.6,0.4,2.7,0.3,4.3,0.3c0.6,0,1.1,0,1.5,0
				c1.9,0,6.6,0.7,6.8,0.8c0.1,0,0.1,0.1,0.1,0.2C1396.3,745.3,1396.3,745.4,1396.2,745.4z"/>
		</g>
		<g>
			<path class="st90" d="M1398.9,762.9C1398.9,762.9,1398.9,762.9,1398.9,762.9c-0.1,0-5-0.4-8.5-0.9c-3.5-0.5-6.1-1.2-6.1-1.2
				c-0.1,0-0.1-0.1-0.1-0.2c0-0.1,0.1-0.1,0.2-0.1c0,0,2.7,0.7,6.1,1.2c3.4,0.5,8.4,0.9,8.5,0.9c0.1,0,0.1,0.1,0.1,0.2
				C1399,762.8,1399,762.9,1398.9,762.9z"/>
		</g>
		<g>
			<path class="st90" d="M1401.6,763.2c-0.1,0-0.1,0-0.1-0.1c0-0.1,0-0.2,0.1-0.2c0.1,0,5.8-1.7,6.7-2.1c0.1,0,0.2,0,0.2,0.1
				c0,0.1,0,0.2-0.1,0.2C1407.4,761.5,1401.8,763.1,1401.6,763.2C1401.6,763.2,1401.6,763.2,1401.6,763.2z"/>
		</g>
		<g>
			<path class="st90" d="M1402.2,765.2c-0.1,0-0.1,0-0.1-0.1c0-0.1,0-0.2,0.1-0.2c0.2-0.1,6-2.9,7-3.1c0.1,0,0.2,0,0.2,0.1
				c0,0.1,0,0.2-0.1,0.2C1408.2,762.3,1402.4,765.2,1402.2,765.2C1402.3,765.2,1402.3,765.2,1402.2,765.2z"/>
		</g>
		<g>
			<path class="st90" d="M1399.5,765.2c-0.1,0.1-0.2,0.1-2.3,0.1c-1.2,0-3.2,0-6.2-0.1c-3-0.1-6.2,0-7.6,0.1c0-0.1,0-0.2,0-0.3
				c1.4-0.1,4.7-0.2,7.6-0.1c6.9,0.2,8.1,0.1,8.3,0c0.1-0.1,0.1,0,0.2,0C1399.6,765,1399.6,765.1,1399.5,765.2z"/>
		</g>
		<g>
			<path class="st90" d="M1393.7,769.2c-0.7,0-1.4-0.1-2.2-0.2l-0.5-0.1c-1.3-0.2-5.5-0.8-5.8-1c-0.1-0.1-0.1-0.1,0-0.2
				c0.1-0.1,0.1-0.1,0.2,0c0.3,0.1,3.7,0.7,5.6,1l0.5,0.1c1.5,0.2,2.5,0.3,4.4-0.1c2.1-0.4,6.7,0,7.4,0.3c0.1,0,0.1,0.1,0.1,0.2
				c0,0.1-0.1,0.1-0.2,0.1c-0.7-0.2-5.1-0.7-7.3-0.2C1395.1,769.2,1394.4,769.2,1393.7,769.2z"/>
		</g>
		<g>
			<path class="st90" d="M1410.5,766.9c0,0.1,0,0.2,0,0.3c-0.7,0.3-1.7,0.6-3,1.1c-1.2,0.4-2.4,0.9-2.5,0.9c0,0,0,0-0.1,0
				c0,0-0.1,0-0.1-0.1c0-0.1,0-0.2,0-0.2c0.1-0.1,0.9-0.4,2.6-1C1408.5,767.6,1409.7,767.2,1410.5,766.9z"/>
		</g>
		<g>
			<path class="st90" d="M1408,782.5c-2,0.6-5.9,1.7-6.4,1.8c0,0,0,0,0,0c0,0,0,0-0.1,0c0,0-0.1,0-0.2,0c-0.1,0-0.2-0.1-0.4-0.1
				c-0.5-0.2-1.3-0.4-2.2-0.5l-0.5-0.1c-1.7-0.2-5.3-0.5-6.8-0.3c-1.7,0.3-6-0.2-6.8-0.5c-0.1,0-0.1-0.1-0.1-0.2
				c0-0.1,0.1-0.1,0.2-0.1c0.7,0.3,4.9,0.8,6.7,0.5c1.6-0.2,5.1,0.1,6.9,0.3l0.5,0c0.9,0.1,1.8,0.3,2.3,0.5c0.1,0,0.2,0.1,0.3,0.1
				c0.1,0,0.2,0,0.2,0c0,0,0,0,0.1,0c0.7-0.2,4.3-1.2,6.3-1.8C1408,782.3,1408,782.4,1408,782.5z"/>
		</g>
		<g>
			<path class="st90" d="M1399.7,793.3c0,0.1-0.1,0.1-0.1,0.1c0,0-3,0.1-5.8,0.1c-1.4,0-2.7,0-3.5-0.1c-1.7-0.1-4.1-0.5-5.6-0.7
				c-0.1-0.1-0.2-0.2-0.3-0.3c0,0,0.1,0,0.1,0c1.5,0.2,4,0.6,5.7,0.7c2.5,0.2,9.2,0,9.3,0C1399.7,793.1,1399.7,793.2,1399.7,793.3z"
				/>
		</g>
		<g>
			<path class="st90" d="M1399.3,797.3c-0.8,0-1.4,0-1.5,0c-0.1,0-0.1-0.1-0.1-0.2c0-0.1,0.1-0.1,0.2-0.1c0,0,4.8,0.3,7.3-0.8
				c0.1,0,0.2,0,0.2,0.1c0,0.1,0,0.2-0.1,0.2C1403.5,797.2,1400.9,797.3,1399.3,797.3z"/>
		</g>
		<g>
			<path class="st90" d="M1397.7,799.7c-0.1,0-0.1,0-0.1-0.1c0-0.1,0-0.2,0.1-0.2c2.2-0.7,7-0.7,7.1-0.7c0.1,0,0.1,0.1,0.1,0.1
				c0,0.1-0.1,0.1-0.1,0.1C1404.6,799,1399.8,799,1397.7,799.7C1397.7,799.7,1397.7,799.7,1397.7,799.7z"/>
		</g>
		<g>
			<path class="st90" d="M1398.3,801.8L1398.3,801.8C1398.3,801.8,1398.3,801.8,1398.3,801.8
				C1398.3,801.8,1398.3,801.9,1398.3,801.8c-0.1,0.1-0.1,0.1-0.1,0.1c0,0-0.1,0-0.1,0c-0.6-0.7-2.7-1.2-5.1-1.2
				c-1.8,0-4.7-0.6-6-0.8c0-0.1,0-0.2,0-0.3c1.3,0.2,4.1,0.8,5.9,0.8c2.5,0,4.6,0.6,5.3,1.3c0,0,0,0,0,0
				C1398.3,801.7,1398.3,801.8,1398.3,801.8z"/>
		</g>
		<g>
			<path class="st90" d="M1408.8,813.3c-0.5,0.3-5.6,1.7-7.2,2.1c-0.1,0-0.2,0.1-0.3,0.1c0,0-0.1,0-0.1,0c0,0,0,0,0,0h0
				c0,0-3.6-0.2-7.8-0.2c-3.2,0-6.9-0.2-8.7-0.4c0-0.1,0-0.2,0-0.3c1.8,0.1,5.5,0.4,8.6,0.4c4,0,7.5,0.2,7.8,0.2c0,0,0.1,0,0.1,0
				c0.1,0,0.2,0,0.3-0.1c2.8-0.7,6.8-1.8,7.1-2c0.1,0,0.2,0,0.2,0C1408.9,813.2,1408.9,813.2,1408.8,813.3z"/>
		</g>
	</g>
	<g>
		<path class="st88" d="M1375.9,822.2l-7.9,0.2l-0.3,0l-17.4,0.5c0,0-0.4-8.8-0.9-10c-0.1-0.3-0.3-0.6-0.4-0.8
			c0-0.1-0.1-0.1-0.1-0.2c-0.3-0.6-0.6-0.9-0.6-0.9l4.3-2.2c0,0-1.7-1.8-1.7-2.1c0-0.3,0.3-0.6,0.3-0.6l-1-0.4c0,0,0.6-2.9,0.3-3.6
			c-0.3-0.7-0.5-2.9-0.3-4c0.2-1.1-1.2-3.6-1.2-3.6s3.2-0.8,2.8-1.8c-0.3-1-1.3-2.3-0.9-3.2c0.4-0.9,0.5-1.5,0.5-1.5l-1.5-5.5
			c0,0,3.2-1.5,3.2-2.1c0-0.6-0.6-0.8-0.6-0.8l16.3-1.3l0.3,0l5.2-0.4v9.2c0,0,0.4,1.1,0.3,1.9c-0.1,0.8-2.2,1.3-2.2,1.3l1.9,2.2
			c0,0-1,1.6-0.7,2.7c0.3,1.1,1.9,1.7,2,1.9c0.1,0.2-0.4,1.5-0.4,1.5l1.5,1c0,0-0.7,7.8-0.3,8.6c0.3,0.8,0.6,2.9,0.8,3.5
			C1377.2,812.4,1375.9,822.2,1375.9,822.2z"/>
		<path class="st91" d="M1375.8,817.5c-0.1,0-1.6,0.6-3.4,0.6c-0.1,0-0.2,0-0.3,0c-1.8-0.1-3.6-0.1-4.1,0l0,4.4l-0.3,0v-7.5
			c0,0,0.4-1.5,0.6-3.3c-0.5-0.1-2.1-0.3-5.5,0c-1.9,0.2-3.6,0.4-5.2,0.7c-1.5,0.2-2.8,0.4-3.7,0.4c-0.2,0-0.4,0-0.5,0
			c-1.4-0.2-3.8-0.5-4.3-0.6c-0.1,0-0.1,0-0.1,0l0-0.2l0-0.2c0,0,2.9,0.4,4.5,0.6c0.8,0.1,2.3-0.1,4.2-0.4c1.5-0.2,3.3-0.5,5.2-0.7
			c3.5-0.3,5.1-0.1,5.6,0c0.1-0.7,0.1-1.4,0.1-2.1c0-0.2,0-0.5,0-0.7c-0.9,0-5.5-0.1-9.1,0.2c-0.7,0-1.3,0.1-1.9,0.1
			c-3,0-5-0.5-5-0.5c-0.1,0-0.1-0.1-0.1-0.2c0-0.1,0.1-0.1,0.2-0.1c0,0,2.8,0.7,6.8,0.4c3.6-0.3,8.2-0.2,9.1-0.2
			c-0.1-1.2-0.3-2.4-0.4-3.4c-0.2-1.1-0.3-2-0.2-2.4c0-0.1,0-0.1,0-0.1c0,0-0.1-0.1,0-0.2c0-0.1,0.1-0.1,0.2-0.1
			c0.2-0.3,0.4-0.5,0.6-0.7c0.3-0.2,0.5-0.5,0.5-0.7c0-0.2-0.1-0.9-0.1-1.7c0-0.3-0.1-0.5-0.1-0.8c-0.8,0.3-3.7,1.2-6.4,1.4
			c-3.1,0.2-9.5,1.2-9.6,1.2c0,0,0,0,0,0c-0.1,0-0.1-0.1-0.2-0.1c0-0.1,0-0.2,0.1-0.2c0.1,0,6.5-1,9.6-1.2c2.8-0.2,5.8-1.2,6.4-1.4
			c-0.1-1.2-0.2-2.4-0.1-2.8c0.1-0.5,0.3-1.3,0.4-2c-0.7,0.3-2.6,1.3-5.1,2.1c-3,1-9.3,3-9.4,3.1c0,0,0,0-0.1,0
			c-0.1,0-0.1,0-0.1-0.1c0-0.1,0-0.2,0.1-0.2c0.1,0,6.3-2.1,9.4-3.1c2.7-0.9,4.8-1.9,5.2-2.1c0-0.3,0-0.5-0.1-0.7
			c-0.2-0.9-2.2-1.9-2.4-1.9c-0.1,0-0.1,0-0.1-0.1c-0.1-0.1-0.1-0.2,0.3-1.4c0.3-0.8,0.6-1.8,0.9-2.9c-0.4,0-1.5-0.1-4.1,0
			c-0.9,0-1.8,0-2.8,0c-2.6,0-5-0.1-5.1-0.1c-0.1,0-0.2-0.1-0.2-0.2c0-0.1,0.1-0.2,0.2-0.2c0,0,4.4,0.1,7.8,0c2.8-0.1,3.8,0,4.2,0
			c0.2-0.7,0.3-1.4,0.3-2c0-0.2,0-0.4,0-0.6c-0.3,0-1.4,0.1-3.8,0.5c-3.3,0.6-8,0.6-8.1,0.6c-0.1,0-0.2-0.1-0.2-0.2
			c0-0.1,0.1-0.2,0.2-0.2c0.1,0,4.8,0,8-0.6c2.5-0.4,3.5-0.5,3.9-0.5c0.1-1.5,0.5-3.2,0.8-4l0.3,0c-0.2,0.9-0.9,3.2-0.8,4.8
			c0,0.6-0.1,1.4-0.3,2.2v0c0,0,0,0,0,0c-0.3,1.1-0.7,2.2-0.9,3.1c-0.2,0.4-0.3,0.9-0.3,1.1c0.6,0.2,2.3,1.2,2.5,2.1
			c0.1,0.3,0.1,0.6,0.1,0.9c0,0,0,0,0,0c0,0.8-0.2,1.8-0.4,2.4c-0.1,0.5,0.1,2.4,0.2,3.8c0.1,0.8,0.2,1.5,0.1,1.7
			c0,0.4-0.3,0.6-0.6,0.9c-0.2,0.2-0.4,0.3-0.5,0.5c0.5,0.1,1.6,0.2,3.1-0.1c2.2-0.4,3.9-0.6,3.9-0.6c0.1,0,0.2,0.1,0.2,0.1
			c0,0.1-0.1,0.2-0.1,0.2c0,0-1.8,0.2-3.9,0.6c-0.7,0.1-1.4,0.2-1.9,0.2c-0.7,0-1.1-0.1-1.4-0.1c0,0,0,0.1,0,0.1
			c-0.1,0.4,0.1,1.3,0.2,2.3c0.2,1.1,0.4,2.4,0.5,3.6c0,0,0,0,0,0c0,0.3,0,0.6,0,0.9c0,2.7-0.7,5.7-0.7,5.8v0.4
			c0.5,0.1,2.4,0.3,3.8,0.8c1.6,0.6,3.3-0.5,3.3-0.5c0.1,0,0.2,0,0.2,0c0,0.1,0,0.2,0,0.2c-0.1,0-1.2,0.8-2.5,0.8
			c-0.4,0-0.7-0.1-1.1-0.2c-1.4-0.5-3.2-0.8-3.7-0.8v2c0.7-0.1,2.5,0,4.1,0c1.8,0.1,3.6-0.5,3.6-0.5c0.1,0,0.2,0,0.2,0.1
			C1375.9,817.3,1375.8,817.4,1375.8,817.5z"/>
	</g>
	<rect x="998.3" y="809" class="st44" width="229.4" height="28.4"/>
	<path class="st42" d="M996.2,825.3l0.1,12.3l22.5-0.2c0,0,2.2-2-4.2-4.1c-6.3-2.1-8.6-5.3-8.6-8.2l-8.1,0.2L996.2,825.3z"/>
	<path class="st43" d="M1002.4,773.5C1002.4,773.5,1002.4,773.5,1002.4,773.5l-6.3-0.1c-0.1,19.4-0.8,51.8-0.8,51.8l2.8-0.1l8.1-0.3
		c0,0,0,0.1,0,0.1l2.4-0.1c0,0,2.3-17.5,3.9-33.5c1.4-14.1-0.3-17.4-0.7-18L1002.4,773.5C1002.4,773.5,1002.4,773.5,1002.4,773.5z"
		/>
	<linearGradient id="SVGID_55_" gradientUnits="userSpaceOnUse" x1="998.0253" y1="726.1665" x2="1018.4575" y2="726.1665">
		<stop  offset="0" style="stop-color:#FF697D"/>
		<stop  offset="1" style="stop-color:#DE2276"/>
	</linearGradient>
	<path class="st92" d="M1002.2,679.7c-1.4,0.4-2.7,0.7-4,1.1c0.4,1.7-0.1,8-0.1,8s2.3,35.9,3.4,46.8c1.1,10.8,1,36.6,1,37.7h9.3
		c-0.1-0.1-0.1-0.1-0.1-0.1s0,0,0.1,0.1h6.8l-1.1-6.7c-1.7-6.5-7.3-52.8-7.3-52.8v-35C1010,678.9,1003.5,680.3,1002.2,679.7z"/>
	<path class="st43" d="M1001.4,735.7c-1.1-11-3.4-46.8-3.4-46.8l-17.8,0.2l-1.5,84.2l-15.6-0.4l-0.6-43.6l0.6,44.2h6.8l0,0h15.8
		c0,0,0,0,0,0h0c1.4-18.3,4.8-51.3,4.8-51.3s5.4,27.1,5.6,43.9c0,2.1,0,4.6,0,7.4h6.3C1002.4,772.3,1002.5,746.5,1001.4,735.7z"/>
	<g>
		<linearGradient id="SVGID_56_" gradientUnits="userSpaceOnUse" x1="894.6568" y1="857.209" x2="862.0284" y2="857.209">
			<stop  offset="0" style="stop-color:#435DF1"/>
			<stop  offset="0.327" style="stop-color:#4333F1"/>
			<stop  offset="1" style="stop-color:#4C008C"/>
		</linearGradient>
		<path class="st93" d="M894.7,866.5c-3.1,0.2-10.7,0.1-18.6-4.3c-8.5-4.7-12.5-11.5-14-14.3c1.4,1,3.7,2.5,6.7,4.2
			c6.1,3.3,9.4,3.9,14.1,6.2C885.8,859.7,890,862.2,894.7,866.5z"/>
		<linearGradient id="SVGID_57_" gradientUnits="userSpaceOnUse" x1="894.6568" y1="851.3866" x2="870.9796" y2="851.3866">
			<stop  offset="0" style="stop-color:#435DF1"/>
			<stop  offset="0.327" style="stop-color:#4333F1"/>
			<stop  offset="1" style="stop-color:#4C008C"/>
		</linearGradient>
		<path class="st94" d="M894.7,866.2c-4.7-1.8-10.7-5-15.9-10.6c-1.6-1.8-3.9-4.3-5.6-8.2c-1.9-4.4-2.2-8.4-2.2-10.8
			c1.3,2.4,3.5,6.1,7.1,10c3.3,3.6,5.3,4.6,8.5,7.8C888.8,856.7,891.9,860.5,894.7,866.2z"/>
		<linearGradient id="SVGID_58_" gradientUnits="userSpaceOnUse" x1="894.6568" y1="848.08" x2="881.5796" y2="848.08">
			<stop  offset="0" style="stop-color:#435DF1"/>
			<stop  offset="0.327" style="stop-color:#4333F1"/>
			<stop  offset="1" style="stop-color:#4C008C"/>
		</linearGradient>
		<path class="st95" d="M894.7,865.9c-2.4-2-8-7-11.1-15.6c-3.2-9.1-1.7-17-1-20c3,6,6.1,13.2,8.7,21.6
			C892.8,856.8,893.9,861.5,894.7,865.9z"/>
		<linearGradient id="SVGID_59_" gradientUnits="userSpaceOnUse" x1="897.3425" y1="848.1536" x2="889.9563" y2="848.1536">
			<stop  offset="0" style="stop-color:#435DF1"/>
			<stop  offset="0.327" style="stop-color:#4333F1"/>
			<stop  offset="1" style="stop-color:#4C008C"/>
		</linearGradient>
		<path class="st96" d="M895.1,866.8c-5.3-8.6-5.6-14.6-4.8-18.5c0.5-2.4,1.6-5.1,1.6-9.5c0-4-0.9-7.3-1.7-9.4
			c1.8,1.5,4.6,4.1,6.1,8.2c0.9,2.2,1.5,5,0.6,14.9C896.6,856.1,896.1,861,895.1,866.8z"/>
		<linearGradient id="SVGID_60_" gradientUnits="userSpaceOnUse" x1="909.7434" y1="849.2532" x2="895.0775" y2="849.2532">
			<stop  offset="0" style="stop-color:#435DF1"/>
			<stop  offset="0.327" style="stop-color:#4333F1"/>
			<stop  offset="1" style="stop-color:#4C008C"/>
		</linearGradient>
		<path class="st97" d="M895.2,866.6c-0.4-8.4,0.9-14.9,2.1-19c1.5-5.2,2.9-7.6,4.2-9.1c2.8-3.6,6.3-5.5,8.4-6.5
			c-1.3,1.8-3.1,4.6-4.6,8.4c-2.1,5.5-1.8,8.6-3.2,13.5C901,857,899.2,861.5,895.2,866.6z"/>
		<linearGradient id="SVGID_61_" gradientUnits="userSpaceOnUse" x1="920.3486" y1="852.941" x2="894.423" y2="852.941">
			<stop  offset="0" style="stop-color:#435DF1"/>
			<stop  offset="0.327" style="stop-color:#4333F1"/>
			<stop  offset="1" style="stop-color:#4C008C"/>
		</linearGradient>
		<path class="st98" d="M894.4,866.5c0.6-3.1,2.5-10.4,8.7-17.1c6.6-7.1,14.2-9.4,17.3-10.1c-3.9,5.5-8.8,11.5-15.1,17.7
			C901.5,860.7,897.9,863.8,894.4,866.5z"/>
		<linearGradient id="SVGID_62_" gradientUnits="userSpaceOnUse" x1="928.8468" y1="858.9154" x2="893.2396" y2="858.9154">
			<stop  offset="0" style="stop-color:#435DF1"/>
			<stop  offset="0.327" style="stop-color:#4333F1"/>
			<stop  offset="1" style="stop-color:#4C008C"/>
		</linearGradient>
		<path class="st99" d="M893.2,866.5c1.9-2.7,6.9-8.9,15.8-12.6c8.8-3.7,16.6-3,19.8-2.5c-10.9,3.5-17.1,7.3-20.8,10.3
			c-1.7,1.4-6.2,5.3-12.1,5.2C894.8,866.8,893.9,866.7,893.2,866.5z"/>
	</g>
	<path class="st55" d="M1190.7,823.8c0,0-0.6-0.4-3.7-8.8c-0.7-1.8-1.9-4-3.3-6.4l-12.9,0.1c2.9,7.4,6.1,14.3,6.1,14.3
		s6,10.8,9.4,13.2c3.3,2.3,15.4-0.1,16.2-0.3c-2.1-5.8,0.1-9.2,1.5-14.2c0.4-1.4,0.5-2.5,0.4-3.4
		C1199,818.9,1190.7,823.8,1190.7,823.8z"/>
	<path class="st43" d="M1161.9,787.8c-6.4,1.6-9.7,5.4-9.7,5.4c1.1,0.9,3.6,1.2,6.1,1.2c-0.4-0.2-3.5-1.5,0.3-2.9
		c4-1.5,2.1-2.1,10-3.1C1168.6,788.4,1168.3,786.2,1161.9,787.8z"/>
	<path class="st55" d="M1168.6,788.4c-7.9,1-6,1.6-10,3.1c-3.7,1.4-0.7,2.7-0.3,2.9c3.8,0,7.8-0.6,7.8-0.6c0.3,3.1,2.4,9.1,4.7,14.8
		l12.9-0.1C1178.1,799.7,1168.6,788.4,1168.6,788.4z"/>
	<path class="st55" d="M1297.2,787.2c-2.1-1.2-8.7,2.9-8.7,2.9s0,0-2,0s-0.4,4.8-0.4,4.8c-1.1-0.3-3.9,3.7-3.9,3.7s2.7,5.9,6.9,6.3
		c3.1,0.3,4.4-0.9,5.4-2.7c0-0.1,0-0.1,0-0.1s0,0,0,0.1c0.4-0.6,0.7-1.4,1-2.1C1295.6,800.1,1299.3,788.4,1297.2,787.2z"/>
	<linearGradient id="SVGID_63_" gradientUnits="userSpaceOnUse" x1="1248.4944" y1="818.1332" x2="1301.1359" y2="818.1332">
		<stop  offset="0" style="stop-color:#FF697D"/>
		<stop  offset="1" style="stop-color:#DE2276"/>
	</linearGradient>
	<path class="st100" d="M1295.4,827.5c-4.7,0.8-0.3-11.3,0.3-15.3c0.5-3.7-0.8-9.2-1-10c-1,1.8-2.2,3-5.4,2.7
		c-4.3-0.4-6.9-6.3-6.9-6.3l-4.5,2.4c0,0-10.9,9.3-16.9,12c-6,2.7-9.5,2.8-9.5,2.8s-2.5,7.1-2.7,9.1c-0.4,6.7,0.4,8.7-0.3,11
		c0,0,11.4,1.3,16.2-2.5c4.8-3.9,12.5-4.5,12.5-4.5c-5.2-9.7-2.7-25.2-2.7-25.2s-2.5,15.4,2.7,25.2c0,0,2,9.2,8.5,8.8
		c6.5-0.4,7.7-5.1,7.7-5.1l6.4-1.9C1302.9,826.7,1300,826.7,1295.4,827.5z M1287.4,820.2c0-7.6-0.5-16.1-0.5-16.1
		S1287.4,812.6,1287.4,820.2c0,7.6,2.1,8.8,7.1,7.3C1289.5,829,1287.4,827.8,1287.4,820.2z"/>
	<path class="st43" d="M1286.2,794.9c0,0-1.6-4.8,0.4-4.8s2,0,2,0s6.5-4.1,8.7-2.9c2.1,1.2-1.6,12.9-1.6,12.9s7.3-2.9,5.5-13.8
		c-1.9-10.9-10-16.9-19.3-15.8c-9.3,1.1-25.4,5.9-22.1-8.9c0,0,6.5-10.9,2.5-19c-4-8.1-22.1-9.1-35.1-0.7s-12.1,27.7-3.6,38.3
		c8.5,10.6,17.2,7.1,33.4,7.3c0,0,11.8-2.4,20.9,13.6l4.5-2.4C1282.3,798.6,1285.1,794.6,1286.2,794.9z"/>
	<path class="st55" d="M1201.1,818.4l-1.3-1.3l4.4-1.2l-4.4,1.2c3.4-0.2,3.8-1.1,3.8-1.1l0.8,2.3l-13.8,6l-3.3-8
		c0,0,0.4-2.6-0.5-7.8c-0.9-5.2-1-22.5-0.9-24.2c0.1-1.7-2.8-2.6-8.4-3.5c-5.6-0.9-4.4-2.9-4.4-2.9s3.5-2.5,10.8-2.2
		c7.3,0.3,6.2,4,6.2,4s2.3,10,5.1,16c2.8,6,4.8,17.8,4.5,21.3c0,0,3.2,0,3.8-1.1"/>
	<path class="st43" d="M1190.2,779.8c0,0,1.1-2.9-3.8-3.7c-4.9-0.8-10.4-0.2-13.2,1.9c0,0-1,1.6,3.2,2.6"/>
	<linearGradient id="SVGID_64_" gradientUnits="userSpaceOnUse" x1="949.7918" y1="654.5474" x2="1067.4077" y2="654.5474">
		<stop  offset="0" style="stop-color:#FF697D"/>
		<stop  offset="1" style="stop-color:#DE2276"/>
	</linearGradient>
	<path class="st101" d="M1060.8,626.2c-0.2,0.3-0.5,0.6-0.9,0.7c-3.2,1.3-10,12.1-19.2,17.9c-9.2,5.8-21.1-2-31.2-8.3
		c-10-6.3-19.8-9.1-19.8-9.1c-4.3,2.1-11.1-2.3-11.1-2.3c-0.8,3.7-10.5,1.9-20.4,13.4s-8.3,43.8-8.3,43.8l13.4,1.1
		c0,0,15.9,1.9,34.9-2.7c0,0,0,0,0-0.1c0,0,0,0,0,0.1c1.3-0.3,2.7-0.7,4-1.1c-1.3-0.5-0.6-7-0.6-7s-9.4,1.1-16.4,0.6v0.2v-0.2
		c-4.1-0.3-7.4-1.1-7.5-3c-0.5-5.2-6-41.2-6-41.2s5.5,36.1,6,41.2c0.2,1.9,3.5,2.7,7.5,3v-37.6l-1.2-1.8l1.3-3.1l1.8,2.8l-0.6,2.4
		l6.5,37.2l-7.8,0.2c7,0.5,16.4-0.6,16.4-0.6c3.8,0.8,7.7-3.2,7.7-3.2v-13.9c0,0,1.9-0.1,12.3,5.1c10.4,5.2,15,5,23.4-3
		c8.4-8,19.4-20.3,20.7-26.1c0.4-1.7,1.1-3,1.8-4.1C1067.2,626.9,1061.8,626.3,1060.8,626.2z M974,673.2c5.6,0.8,9.1,0,9.1,0
		S979.6,673.9,974,673.2c-5.6-0.8-5.5-42.7-5.5-42.7S968.4,672.4,974,673.2z M975.7,627.8l5,44.7L975.7,627.8z M991.7,628.3
		l5.4,44.7L991.7,628.3z"/>
	<path class="st102" d="M991.5,628c-0.3-0.1-0.6-0.2-1-0.3c-0.3-0.1-0.6-0.2-0.9-0.3c-1.2-0.2-2.5-0.3-3.9-0.6c-2.6-0.5-5-1-7.3-1.7
		c0,0-0.6,0.9-1.4,1.6c0,0-0.7,0.4-1.7,0.8c0,0-0.1,0.4-0.1,0.6c-0.7,3.9,5.3,44.5,5.3,44.5s14.4,1.6,16.5,0.2L991.5,628z"/>
	<polygon class="st43" points="986.4,636 987.1,633.6 985.2,630.8 984,633.9 985.1,635.8 985.1,673.3 993,673.5 	"/>
	<polygon class="st55" points="1205,818.2 1200.3,819 1199.8,817.1 1204.1,815.8 	"/>
	<linearGradient id="SVGID_65_" gradientUnits="userSpaceOnUse" x1="1201.6176" y1="832.0123" x2="1251.423" y2="832.0123">
		<stop  offset="0" style="stop-color:#435DF1"/>
		<stop  offset="0.327" style="stop-color:#4333F1"/>
		<stop  offset="1" style="stop-color:#4C008C"/>
	</linearGradient>
	<path class="st103" d="M1248.8,824.8c0.1-2,2.7-9.1,2.7-9.1s-13-20.4-49.4-1.2c0,0,2.2,0.7,2.4,3.7c0.1,0,0.1,0,0.2,0
		c-0.1,0-0.1,0-0.2,0c0.1,0.9,0,2-0.4,3.4c-1.5,5-3.6,8.4-1.5,14.2c0,0,0.1,0,0.1,0s-0.1,0-0.1,0c0.3,1,0.8,2,1.4,3.1
		c4.3,7.9-4.5,15.4,2.4,18.1c6.9,2.7,8.3-4.5,9.1-7.6c0.8-3.1,1.2-6.7,10.3-6.5c9.1,0.1,22.2-4.7,22.9-7.1
		S1248.3,831.5,1248.8,824.8z"/>
	<polygon class="st83" points="1302.6,809 1335.1,809 1324.2,837 1291.5,837 	"/>
	<g>
		<rect x="1271.6" y="836.8" class="st83" width="52.7" height="1.1"/>
	</g>
	<rect x="-1" y="-1.4" class="st52" width="1504.6" height="930.6"/>
</g>
</svg>
